<?xml version="1.0" encoding="utf-8"?>
<!-- Generator: Adobe Illustrator 27.5.0, SVG Export Plug-In . SVG Version: 6.00 Build 0)  -->
<svg version="1.1" xmlns="http://www.w3.org/2000/svg" xmlns:xlink="http://www.w3.org/1999/xlink" x="0px" y="0px"
	 viewBox="0 0 500 500" style="enable-background:new 0 0 500 500;" xml:space="preserve">
<g id="Background_Complete">
	<g>
		<g>
			<g>
				<g>
					<path style="fill:#F5F5F5;" d="M107.161,442.023c17.999-12.575,22.082-35.915,21.37-56.896
						c-0.118-3.502,0.266-7.194-1.4-10.267c-1.667-3.072-5.554-5.172-8.689-3.697c-2.601,1.224-3.734,4.25-5.189,6.752
						c-1.936,3.329-4.82,6.084-8.214,7.845c-2.23,1.157-4.989,1.865-7.191,0.651c-3.021-1.667-3.377-5.84-3.355-9.324
						c0.041-6.492,0.081-12.985,0.122-19.476c0.022-3.483,0.032-7.039-1.051-10.345s-3.477-6.377-6.79-7.305
						c-3.314-0.928-7.412,0.982-8.111,4.392c-0.291,1.419-0.002,2.892-0.099,4.337c-0.097,1.446-0.771,3.046-2.144,3.449
						c-1.39,0.409-2.784-0.579-3.825-1.599c-3.596-3.517-6.035-8.048-8.315-12.553c-2.28-4.506-4.493-9.118-7.755-12.954
						s-7.774-6.876-12.763-7.159c-4.989-0.282-10.304,2.797-11.564,7.694c-1.264,4.911,1.601,9.893,4.718,13.868
						c4.625,5.898,10.097,11.113,16.189,15.431c1.098,0.779,2.288,1.621,2.708,2.912c0.757,2.322-1.444,4.629-3.737,5.392
						c-2.596,0.865-5.414,0.595-8.129,0.915c-2.716,0.32-5.658,1.518-6.686,4.085c-1.427,3.56,1.551,7.292,4.481,9.736
						c5.867,4.895,12.566,8.761,19.712,11.379c2.562,0.938,5.259,1.76,7.325,3.56c2.066,1.801,3.313,4.931,2.065,7.384
						c-1.249,2.457-4.453,3.242-7.137,2.743c-2.683-0.497-5.086-1.955-7.644-2.919c-4.787-1.807-10.968-1.477-14.035,2.66
						c-2.015,2.719-2.193,6.506-1.173,9.747c1.018,3.241,3.086,6.034,5.281,8.609c7.672,9.001,17.493,16.248,28.598,20.098
						C85.837,445.017,96.126,446.059,107.161,442.023"/>
				</g>
			</g>
		</g>
		<g>
			<g>
				<g>
					<g>
						<path style="fill:#E0E0E0;" d="M107.437,457.578c-0.76-8.311-2.583-18.127-5.691-28.707
							c-3.088-10.588-7.436-21.914-12.39-33.603c-1.249-2.917-2.484-5.8-3.7-8.642c-1.221-2.833-2.432-5.644-3.785-8.319
							c-2.685-5.363-5.675-10.315-8.661-14.927c-2.984-4.615-5.985-8.885-8.819-12.857c-2.844-3.968-5.565-7.616-8.186-10.836
							c-5.225-6.461-10.047-11.164-13.488-14.257c-1.718-1.553-3.09-2.714-4.031-3.488c-0.453-0.368-0.808-0.657-1.075-0.874
							c-0.245-0.193-0.373-0.288-0.38-0.28c-0.008,0.009,0.107,0.121,0.338,0.331c0.257,0.229,0.6,0.534,1.034,0.922
							c0.913,0.806,2.257,1.996,3.948,3.575c3.385,3.147,8.14,7.882,13.304,14.36c2.592,3.228,5.285,6.884,8.106,10.86
							c2.814,3.983,5.794,8.258,8.758,12.87c2.964,4.609,5.931,9.549,8.594,14.887c1.343,2.662,2.54,5.449,3.762,8.29
							c1.215,2.84,2.447,5.722,3.696,8.638c4.949,11.68,9.303,22.972,12.413,33.519c3.129,10.538,4.99,20.305,5.805,28.581"/>
					</g>
				</g>
			</g>
		</g>
		<g>
			<g>
				<g>
					<g>
						<path style="fill:#E0E0E0;" d="M81.687,378.282c0.043,0.007,0.162-0.522,0.34-1.486c0.183-0.963,0.402-2.363,0.646-4.098
							c0.493-3.468,1.009-8.281,1.559-13.589c0.549-5.311,1.133-10.102,1.677-13.553c0.267-1.726,0.497-3.122,0.669-4.084
							c0.166-0.964,0.238-1.502,0.195-1.512c-0.043-0.01-0.197,0.51-0.438,1.46c-0.247,0.948-0.546,2.335-0.87,4.057
							c-0.661,3.444-1.319,8.247-1.868,13.563c-0.529,5.24-1.007,9.979-1.372,13.601c-0.175,1.635-0.324,3.013-0.444,4.119
							C81.679,377.732,81.643,378.275,81.687,378.282z"/>
					</g>
				</g>
			</g>
		</g>
		<g>
			<g>
				<g>
					<g>
						<path style="fill:#E0E0E0;" d="M36.904,369.912c-0.001,0.044,0.636,0.118,1.786,0.214c1.149,0.102,2.813,0.241,4.862,0.479
							c4.102,0.443,9.746,1.253,15.935,2.419c6.189,1.178,11.743,2.482,15.733,3.541c2,0.515,3.607,0.976,4.72,1.288
							c1.112,0.316,1.733,0.471,1.748,0.429c0.014-0.043-0.583-0.279-1.674-0.67c-1.092-0.386-2.684-0.915-4.674-1.489
							c-3.971-1.175-9.529-2.554-15.736-3.736c-6.207-1.169-11.883-1.91-16.009-2.237c-2.062-0.18-3.735-0.25-4.892-0.274
							C37.546,369.857,36.906,369.867,36.904,369.912z"/>
					</g>
				</g>
			</g>
		</g>
		<g>
			<g>
				<g>
					<g>
						<path style="fill:#E0E0E0;" d="M101.195,428.046c0.02,0.009,0.125-0.178,0.307-0.546c0.207-0.438,0.46-0.973,0.766-1.62
							c0.659-1.41,1.559-3.475,2.637-6.041c2.161-5.13,4.922-12.311,7.862-20.275c2.942-7.968,5.633-15.165,7.684-20.332
							c1.005-2.512,1.832-4.578,2.446-6.114c0.263-0.667,0.479-1.216,0.657-1.668c0.143-0.383,0.209-0.589,0.189-0.6
							c-0.02-0.008-0.125,0.18-0.307,0.547c-0.207,0.438-0.46,0.972-0.766,1.619c-0.659,1.41-1.559,3.475-2.637,6.04
							c-2.161,5.13-4.922,12.311-7.863,20.279c-2.941,7.966-5.632,15.161-7.682,20.33c-1.006,2.511-1.832,4.579-2.446,6.113
							c-0.263,0.667-0.479,1.218-0.657,1.668C101.24,427.832,101.174,428.037,101.195,428.046z"/>
					</g>
				</g>
			</g>
		</g>
		<g>
			<g>
				<g>
					<g>
						<path style="fill:#E0E0E0;" d="M41.685,408.867c-0.006,0.022,0.198,0.105,0.591,0.243c0.465,0.156,1.036,0.347,1.728,0.579
							c1.596,0.518,3.751,1.216,6.373,2.065c5.381,1.745,12.784,4.241,20.961,7.009c8.18,2.771,15.614,5.2,21.032,6.834
							c2.709,0.818,4.907,1.458,6.435,1.868c0.707,0.185,1.289,0.338,1.763,0.463c0.405,0.099,0.621,0.14,0.627,0.118
							c0.006-0.021-0.198-0.105-0.591-0.244c-0.464-0.155-1.035-0.346-1.728-0.578c-1.596-0.518-3.75-1.215-6.372-2.065
							c-5.381-1.744-12.785-4.241-20.965-7.01c-8.177-2.769-15.61-5.199-21.029-6.832c-2.709-0.818-4.907-1.458-6.437-1.868
							c-0.706-0.186-1.288-0.339-1.763-0.463C41.907,408.886,41.692,408.845,41.685,408.867z"/>
					</g>
				</g>
			</g>
		</g>
	</g>
	<g>
		<g>
			<path style="fill:#F5F5F5;" d="M430.082,415.334c-3.073,2.572-7.103,0.361-8.582-2.112c-1.479-2.473-1.569-5.505-1.619-8.386
				c-0.113-6.583-0.16-13.469,2.822-19.339c0.892-1.755,2.087-3.422,3.765-4.451c1.679-1.028,3.91-1.308,5.616-0.328
				c2.02,1.16,2.798,3.654,3.23,5.943c1.268,6.729,1.011,13.742-0.747,20.36C433.746,410.113,432.51,413.254,430.082,415.334"/>
		</g>
		<g>
			<path style="fill:#EBEBEB;" d="M417.445,429.147c-3.125-2.85-7.333-4.244-11.542-4.663c-2.261-0.225-4.692-0.185-6.603,1.044
				s-2.96,4.016-1.645,5.868c0.783,1.103,2.153,1.607,3.462,1.943c3.164,0.813,6.813,1.199,8.822,3.776
				c1.146,1.47,1.618,3.527,3.194,4.523c1.541,0.974,3.706,0.492,5.007-0.786c1.3-1.278,1.841-3.167,1.886-4.989
				C420.027,435.864,420.593,432.018,417.445,429.147z"/>
		</g>
		<g>
			<path style="fill:#EBEBEB;" d="M434.951,421.523c-1.64-3.509-0.974-7.802,1.063-11.097c2.037-3.294,5.28-5.689,8.741-7.426
				c4.058-2.036,8.517-3.27,13.045-3.611c1.782-0.134,3.62-0.123,5.294,0.503c1.673,0.626,3.167,1.97,3.556,3.714
				c0.576,2.578-1.297,5.013-3.128,6.918c-3.225,3.356-6.714,6.458-10.425,9.268c-2.985,2.26-6.282,4.395-10.007,4.777
				s-7.192-0.715-8.352-3.539"/>
		</g>
		<g>
			<g>
				<path style="fill:#E0E0E0;" d="M418.221,457.66c0.262-1.703,0.551-3.737,0.668-6.004c0.118-2.261,0.025-4.771-0.263-7.369
					c-0.325-2.593-0.915-5.029-1.817-7.093c-0.89-2.069-2.126-3.726-3.41-4.835c-1.274-1.122-2.513-1.772-3.389-2.148
					c-0.894-0.342-1.389-0.553-1.378-0.594c0.011-0.041,0.528,0.091,1.465,0.37c0.919,0.314,2.228,0.921,3.588,2.043
					c1.369,1.108,2.696,2.809,3.642,4.931c0.96,2.118,1.581,4.612,1.911,7.251c0.293,2.643,0.369,5.174,0.219,7.476
					c-0.151,2.298-0.487,4.342-0.805,6.044"/>
			</g>
		</g>
		<g>
			<g>
				<path style="fill:#E0E0E0;" d="M418.563,457.502c0.451-1.657,1.096-4.057,1.806-7.045c1.449-5.967,3.142-14.287,4.577-23.546
					c1.429-9.264,2.292-17.711,2.656-23.84c0.108-1.532,0.175-2.918,0.215-4.137c0.053-1.219,0.101-2.268,0.106-3.127
					c0.022-0.804,0.04-1.458,0.054-1.978c0.019-0.453,0.039-0.69,0.061-0.691c0.021,0,0.043,0.237,0.064,0.689
					c0.016,0.52,0.037,1.176,0.062,1.981c0.032,0.861,0.019,1.913-0.001,3.135c-0.007,1.223-0.044,2.614-0.125,4.151
					c-0.253,6.151-1.049,14.627-2.482,23.911c-1.439,9.279-3.203,17.604-4.764,23.558c-0.765,2.981-1.475,5.369-1.998,7.008"/>
			</g>
		</g>
		<g>
			<g>
				<path style="fill:#E0E0E0;" d="M422.124,444.253c-0.041-0.013,0.157-0.72,0.552-1.993c0.419-1.263,1.094-3.07,2.068-5.244
					c0.993-2.163,2.253-4.71,3.881-7.407c1.59-2.719,3.542-5.591,5.806-8.438c4.479-5.748,9.62-10.049,13.734-12.463
					c0.992-0.668,2.006-1.069,2.846-1.503c0.429-0.201,0.817-0.413,1.194-0.561c0.375-0.133,0.724-0.256,1.047-0.371
					c1.259-0.441,1.958-0.664,1.97-0.624c0.06,0.155-2.809,0.946-6.832,3.431c-4.009,2.482-9.036,6.774-13.478,12.474
					c-2.245,2.822-4.196,5.662-5.801,8.346c-1.644,2.663-2.935,5.172-3.972,7.298c-1.017,2.138-1.75,3.909-2.237,5.141
					C422.439,443.582,422.164,444.265,422.124,444.253z"/>
			</g>
		</g>
	</g>
	<path style="fill:#EBEBEB;" d="M420.519,206.567l0.591-1.294l0.771,1.196c0.216,0.335,0.524,0.601,0.886,0.767l1.294,0.591
		l-1.195,0.771c-0.335,0.216-0.601,0.524-0.767,0.886l-0.591,1.294l-0.771-1.195c-0.216-0.335-0.523-0.601-0.886-0.767l-1.294-0.591
		l1.195-0.771C420.088,207.237,420.354,206.93,420.519,206.567z"/>
	<path style="fill:#EBEBEB;" d="M398.481,82.285l0.591-1.294l0.771,1.196c0.216,0.335,0.523,0.601,0.886,0.767l1.294,0.591
		l-1.195,0.771c-0.335,0.216-0.601,0.523-0.767,0.886l-0.591,1.294l-0.771-1.195c-0.216-0.335-0.523-0.601-0.886-0.767l-1.294-0.591
		l1.195-0.771C398.049,82.955,398.315,82.647,398.481,82.285z"/>
	<path style="fill:#EBEBEB;" d="M347.27,55.206l0.591-1.294l0.771,1.195c0.216,0.335,0.523,0.601,0.886,0.767l1.294,0.591
		l-1.195,0.771c-0.335,0.216-0.601,0.524-0.767,0.886l-0.591,1.294l-0.771-1.195c-0.216-0.335-0.523-0.601-0.886-0.767l-1.294-0.591
		l1.195-0.771C346.838,55.876,347.104,55.569,347.27,55.206z"/>
	<path style="fill:#EBEBEB;" d="M84.411,107.417l0.591-1.294l0.771,1.196c0.216,0.335,0.524,0.601,0.886,0.767l1.294,0.591
		l-1.195,0.771c-0.335,0.216-0.601,0.523-0.767,0.886l-0.591,1.294l-0.771-1.196c-0.216-0.335-0.524-0.601-0.886-0.767l-1.294-0.591
		l1.196-0.771C83.979,108.087,84.245,107.78,84.411,107.417z"/>
	<path style="fill:#EBEBEB;" d="M150.61,39.89l0.591-1.294l0.771,1.195c0.216,0.335,0.523,0.601,0.886,0.767l1.294,0.591
		l-1.195,0.771c-0.335,0.216-0.601,0.523-0.767,0.886l-0.591,1.294l-0.771-1.195c-0.216-0.335-0.524-0.601-0.886-0.767l-1.294-0.591
		l1.195-0.771C150.178,40.56,150.444,40.252,150.61,39.89z"/>
	<path style="fill:#E0E0E0;" d="M446.022,127.636l0.968-2.121l1.263,1.959c0.354,0.549,0.858,0.985,1.452,1.256l2.121,0.968
		l-1.959,1.263c-0.549,0.354-0.985,0.858-1.257,1.452l-0.968,2.121l-1.263-1.959c-0.354-0.549-0.858-0.985-1.452-1.257l-2.121-0.968
		l1.959-1.263C445.315,128.734,445.751,128.23,446.022,127.636z"/>
	<path style="fill:#E0E0E0;" d="M55.141,178.842l0.968-2.121l1.263,1.959c0.354,0.549,0.858,0.985,1.452,1.257l2.121,0.968
		l-1.959,1.263c-0.549,0.354-0.985,0.858-1.257,1.452l-0.968,2.121l-1.263-1.959c-0.354-0.549-0.858-0.985-1.452-1.257l-2.12-0.968
		l1.959-1.263C54.434,179.941,54.87,179.436,55.141,178.842z"/>
	<path style="fill:#E0E0E0;" d="M442.806,264.744l0.968-2.121l1.263,1.959c0.354,0.549,0.858,0.985,1.452,1.257l2.121,0.968
		l-1.959,1.263c-0.549,0.354-0.985,0.858-1.257,1.452l-0.968,2.121l-1.263-1.959c-0.354-0.549-0.858-0.985-1.452-1.257l-2.121-0.968
		l1.959-1.263C442.099,265.842,442.535,265.339,442.806,264.744z"/>
	<path style="fill:#E0E0E0;" d="M438.296,57.026l0.968-2.121l1.263,1.959c0.354,0.549,0.858,0.985,1.452,1.257l2.121,0.968
		l-1.959,1.263c-0.549,0.354-0.985,0.858-1.257,1.452l-0.968,2.121l-1.263-1.959c-0.354-0.549-0.858-0.985-1.452-1.257l-2.121-0.968
		l1.959-1.263C437.589,58.125,438.025,57.62,438.296,57.026z"/>
	<path style="fill:#E0E0E0;" d="M58.002,61.536l0.968-2.121l1.263,1.959c0.354,0.549,0.858,0.985,1.452,1.257l2.121,0.968
		l-1.959,1.263c-0.549,0.354-0.985,0.858-1.257,1.452l-0.968,2.121l-1.263-1.959c-0.354-0.549-0.858-0.985-1.452-1.257l-2.121-0.968
		l1.959-1.263C57.294,62.635,57.73,62.131,58.002,61.536z"/>
</g>
<g id="Background_Simple" style="display:none;">
	<path style="display:inline;fill:#F5F5F5;" d="M108.705,168.468c-0.623-10.002-7.726-21.154-17.501-24.25l0.042,0.027
		c-3.605-1.57-7.729-1.972-11.536-0.969c-5.796,1.526-10.644,6.235-12.339,11.984c-1.213,4.115-0.878,8.505-1.292,12.775
		c-0.413,4.27-1.853,8.838-5.453,11.171c-2.707,1.754-6.152,1.926-9.045,3.354c-5.257,2.594-7.767,9.275-6.394,14.974
		c1.373,5.699,6.041,10.247,11.471,12.458c5.43,2.211,11.525,2.316,17.312,1.381c10.122-1.636,19.84-6.53,26.52-14.309
		C107.169,189.282,109.343,178.701,108.705,168.468z"/>
	<path style="display:inline;fill:#F5F5F5;" d="M423.055,271.888c7.621,0.887,16.988-2.952,20.647-9.897l-0.026,0.028
		c1.672-2.503,2.534-5.557,2.295-8.562c-0.364-4.574-3.254-8.866-7.356-10.923c-2.936-1.472-6.289-1.815-9.451-2.706
		c-3.161-0.891-6.408-2.595-7.678-5.624c-0.955-2.278-0.617-4.897-1.3-7.271c-1.242-4.314-5.935-7.111-10.416-6.85
		c-4.481,0.261-8.541,3.162-10.943,6.954c-2.402,3.792-3.309,8.37-3.389,12.858c-0.14,7.849,2.229,15.836,7.185,21.925
		C407.578,267.906,415.257,270.98,423.055,271.888z"/>
	<path style="display:inline;fill:#F5F5F5;" d="M103.885,124.654c4.682-2.279,7.53-7.579,7.453-12.786
		c-0.077-5.207-2.821-10.178-6.797-13.541c-2.563-2.169-5.787-3.77-9.142-3.645c-5.191,0.194-9.616,4.781-10.408,9.916
		c-0.792,5.134,1.62,10.436,5.478,13.916c3.857,3.48,8.982,5.303,14.13,6.002"/>
</g>
<g id="Floor">
	<g>
		<path style="fill:#263238;" d="M444.101,457.551c0,0.144-86.909,0.26-194.091,0.26c-107.22,0-194.11-0.116-194.11-0.26
			c0-0.144,86.89-0.26,194.11-0.26C357.192,457.291,444.101,457.407,444.101,457.551z"/>
	</g>
</g>
<g id="Character">
	<g>
		<path style="fill:#E8505B;" d="M299.741,404.762c14.473-2.307,33.762-1.094,44.349-11.229
			c10.587-10.135,12.63-30.328,0.224-38.131c-8.35-5.252-19.27-2.932-28.537,0.449c-16.114,5.879-31.351,14.48-48.159,17.902
			c-16.809,3.422-36.508,0.357-46.974-13.234c-6.926-8.993-9.234-21.724-18.583-28.16c-12.402-8.538-32.973-2.853-41.258-15.425
			c-8.172-12.402,4.688-28.942,1.549-43.459c-4.374-20.224-35.192-23.656-42.663-42.952c-4.974-12.846,2.629-26.968,10.982-37.922
			c8.353-10.953,18.239-22.355,18.409-36.128c0.154-12.46-7.835-23.635-9.414-35.996c-2.714-21.24,13.652-40.003,30.57-53.129
			c16.632-12.903,35.974-23.874,57.01-24.664c21.036-0.789,43.645,11.246,49.358,31.506c2.794,9.91,1.399,20.496,2.799,30.698
			c1.4,10.201,7.109,21.226,17.206,23.247c12.452,2.492,22.527-9.496,29.977-19.779c7.45-10.284,19.225-21.409,31.021-16.708
			c13.323,5.309,13.795,26.368,26.787,32.44c5.092,2.38,11.165,1.878,16.265,4.241c11.213,5.195,12.25,21.085,8.105,32.727
			c-5.631,15.817-17.829,29.18-33.068,36.227c-10.266,4.747-21.949,6.834-30.845,13.819c-6.653,5.224-11.089,12.697-15.372,19.991
			c-3.532,6.015-7.12,12.177-8.467,19.021c-1.347,6.844-0.054,14.619,5.023,19.402c6.14,5.785,15.801,5.642,23.96,3.502
			c8.159-2.14,16.018-5.917,24.448-6.23c16.562-0.614,30.331,11.921,42.073,23.616c6.126,6.101,12.343,12.324,16.418,19.949
			c4.075,7.626,5.762,17.003,2.401,24.969c-3.536,8.382-11.886,13.79-16.33,21.729c-4.074,7.277-4.514,16.003-7.38,23.836
			c-5.99,16.367-22.329,27.299-39.365,30.977C355.221,415.54,313.67,418.744,299.741,404.762"/>
		<path style="opacity:0.9;fill:#FFFFFF;" d="M299.741,404.762c14.473-2.307,33.762-1.094,44.349-11.229
			c10.587-10.135,12.63-30.328,0.224-38.131c-8.35-5.252-19.27-2.932-28.537,0.449c-16.114,5.879-31.351,14.48-48.159,17.902
			c-16.809,3.422-36.508,0.357-46.974-13.234c-6.926-8.993-9.234-21.724-18.583-28.16c-12.402-8.538-32.973-2.853-41.258-15.425
			c-8.172-12.402,4.688-28.942,1.549-43.459c-4.374-20.224-35.192-23.656-42.663-42.952c-4.974-12.846,2.629-26.968,10.982-37.922
			c8.353-10.953,18.239-22.355,18.409-36.128c0.154-12.46-7.835-23.635-9.414-35.996c-2.714-21.24,13.652-40.003,30.57-53.129
			c16.632-12.903,35.974-23.874,57.01-24.664c21.036-0.789,43.645,11.246,49.358,31.506c2.794,9.91,1.399,20.496,2.799,30.698
			c1.4,10.201,7.109,21.226,17.206,23.247c12.452,2.492,22.527-9.496,29.977-19.779c7.45-10.284,19.225-21.409,31.021-16.708
			c13.323,5.309,13.795,26.368,26.787,32.44c5.092,2.38,11.165,1.878,16.265,4.241c11.213,5.195,12.25,21.085,8.105,32.727
			c-5.631,15.817-17.829,29.18-33.068,36.227c-10.266,4.747-21.949,6.834-30.845,13.819c-6.653,5.224-11.089,12.697-15.372,19.991
			c-3.532,6.015-7.12,12.177-8.467,19.021c-1.347,6.844-0.054,14.619,5.023,19.402c6.14,5.785,15.801,5.642,23.96,3.502
			c8.159-2.14,16.018-5.917,24.448-6.23c16.562-0.614,30.331,11.921,42.073,23.616c6.126,6.101,12.343,12.324,16.418,19.949
			c4.075,7.626,5.762,17.003,2.401,24.969c-3.536,8.382-11.886,13.79-16.33,21.729c-4.074,7.277-4.514,16.003-7.38,23.836
			c-5.99,16.367-22.329,27.299-39.365,30.977C355.221,415.54,313.67,418.744,299.741,404.762"/>
	</g>
	<g>
		<g>
			<g>
				<path style="fill:#E8505B;" d="M190.12,246.53c-4.339,28.75-0.302,61.306,21.639,80.384
					c21.942,19.078,61.077,24.059,88.945,15.767c12.371-3.681,23.815-10.086,36.253-13.532s26.921-3.439,36.969,4.662
					c11.75,9.474,13.529,27.92,6.484,41.268c-7.045,13.349-21.075,21.895-35.667,25.753s-29.911,3.626-45.002,3.368
					c21.238,7.601,45.208,8.809,66.238,0.65s38.549-26.347,43.325-48.393c4.775-22.046-4.736-47.163-24.278-58.43
					c-11.858-6.837-21.12-12.711-37.179-14.853c-13.568-1.809-26.46-0.474-40.147-0.357c-17.454,0.15-29.798,0.714-42.288-18.2
					l-9.018-19.734L190.12,246.53z"/>
				<g style="opacity:0.3;">
					<path d="M190.12,246.53c-4.339,28.75-0.302,61.306,21.639,80.384c21.942,19.078,61.077,24.059,88.945,15.767
						c12.371-3.681,23.815-10.086,36.253-13.532s26.921-3.439,36.969,4.662c11.75,9.474,13.529,27.92,6.484,41.268
						c-7.045,13.349-21.075,21.895-35.667,25.753s-29.911,3.626-45.002,3.368c21.238,7.601,45.208,8.809,66.238,0.65
						s38.549-26.347,43.325-48.393c4.775-22.046-4.736-47.163-24.278-58.43c-11.858-6.837-21.12-12.711-37.179-14.853
						c-13.568-1.809-26.46-0.474-40.147-0.357c-17.454,0.15-29.798,0.714-42.288-18.2l-9.018-19.734L190.12,246.53z"/>
				</g>
			</g>
			<g>
				<path style="fill:#FFFFFF;" d="M357.479,321.952c-0.007,0.078-1.243,0.023-3.237-0.017c-1.994-0.041-4.749-0.042-7.785,0.125
					c-3.037,0.171-5.775,0.478-7.752,0.741c-1.978,0.262-3.2,0.453-3.215,0.376c-0.013-0.064,1.186-0.384,3.158-0.74
					c1.972-0.357,4.722-0.725,7.78-0.897c3.056-0.169,5.83-0.109,7.83,0.027C356.258,321.702,357.485,321.886,357.479,321.952z"/>
			</g>
			<g>
				<path style="fill:#FFFFFF;" d="M378.904,330.802c-0.145,0.05-0.551-1.451-1.984-2.56c-1.405-1.144-2.959-1.199-2.943-1.352
					c-0.002-0.062,0.387-0.147,1.018-0.058c0.627,0.086,1.481,0.395,2.249,1.002c0.765,0.61,1.26,1.372,1.485,1.963
					C378.96,330.391,378.964,330.79,378.904,330.802z"/>
			</g>
		</g>
		<g>
			<polygon style="fill:#E8505B;" points="202.425,142.349 202.425,142.349 202.427,142.349 			"/>
		</g>
		<path style="fill:#B78876;" d="M174.883,157.103l-30.63,42.68c-4.462,6.217-3.42,14.814,2.396,19.786l29.617,25.316l9.191-12.359
			l-18.893-25.372l18.893-20.057L174.883,157.103z"/>
		<polygon style="fill:#E8505B;" points="166.114,236.615 178.825,223.62 185.457,232.526 176.266,244.885 		"/>
		<g>
			<g>
				<path style="fill:#B78876;" d="M229.019,143.391L229.019,143.391c1.009,0.121,2.349,0.252,4.027,0.45
					c0.11,0.013,0.219,0.026,0.327,0.04c13.116,1.625,22.63,13.297,21.775,26.486l-1.339,20.647c0,0-1.421,35.523-1.608,35.392
					c-0.003-0.002-0.006-0.003-0.006,0.001l5.339,24.419l-68.157,2.114l1.786-24.671l-8.537-13.485l0.413-25.326l-10.087-27.429
					c2.093-7.041,9.627-14.665,20.096-16.671c3.324-0.637,6.561-1.84,10.468-2.006l0.004,0.003
					c7.413,5.766,17.771,5.85,25.276,0.205L229.019,143.391z"/>
			</g>
			<polygon style="fill:#AA6550;" points="189.839,227.161 190.363,230.897 214.078,231.789 203.538,165.386 			"/>
			<path style="fill:#E8505B;" d="M202.427,142.978l8.14,85.085l-27.952-1.217v-36.103c0,0,11.158-24.017-7.732-33.011
				c0,0,2.757-8.526,9.31-10.177C190.747,145.905,202.427,142.978,202.427,142.978z"/>
			<path style="fill:#AA6550;" d="M231.442,160.8c-0.089-0.642,5.694,66.355,5.694,66.355c0.098,0.574,0.246,1.22,0.751,1.51
				c0.329,0.189,0.732,0.176,1.111,0.157c4.217-0.21,8.434-0.42,12.65-0.63c0.109-1.645,0.219-3.29,0.328-4.935
				c-1.747-0.226-3.262-1.389-4.307-2.806c-1.045-1.417-1.689-3.084-2.32-4.728c-5.862-15.267-11.812-31.007-11.531-47.358"/>
			<path style="fill:#E8505B;" d="M229.019,143.391l11.253,80.858h19.547l-10.87-72.108
				C248.949,152.141,243.606,142.721,229.019,143.391z"/>
		</g>
		<polygon style="fill:#E8505B;" points="189.291,253.046 258.821,250.196 253.775,232.996 189.954,232.996 		"/>
		<g>
			<path style="fill:#B78876;" d="M185.457,232.526l10.569-4.213c0.801-0.144,1.625,0.073,2.247,0.597
				c2.262,1.902,7.757,6.654,9.628,9.46c1.788,2.682-0.818,4.458-1.796,3.423c-10.731-11.359-10.331-4.76-10.331-4.76
				s9.306,7.499,8.244,8.803c-1.061,1.304-1.548,1.8-3.4,0.417c-2.09-1.561-7.673-5.522-7.673-5.522s6.691,5.297,7.488,7.017
				c0.678,1.462-0.836,2.813-2.201,2.358c-1.365-0.455-9.782-6.909-9.782-6.909s-3.997,4.812-6.423,6.025
				c-2.426,1.213-5.762-4.337-5.762-4.337L185.457,232.526z"/>
			<g>
				<path style="fill:#AA6550;" d="M185.78,232.514c-0.003-0.008,0.074-0.048,0.227-0.118c0.183-0.079,0.408-0.177,0.686-0.298
					c0.646-0.267,1.533-0.633,2.656-1.097c1.17-0.473,2.582-1.044,4.214-1.705c0.836-0.319,1.669-0.71,2.666-1.031
					c0.498-0.161,1.17-0.073,1.607,0.301c0.439,0.347,0.818,0.712,1.244,1.08c1.671,1.483,3.497,3.104,5.456,4.843
					c0.974,0.887,2.005,1.738,3.025,2.739c0.493,0.514,0.962,1.116,1.202,1.856c0.231,0.745,0.185,1.593-0.239,2.305
					c-0.214,0.353-0.538,0.654-0.955,0.811c-0.49,0.154-0.918-0.033-1.271-0.207c-0.72-0.384-1.273-0.925-1.859-1.433
					c-1.168-1.031-2.215-2.234-3.393-3.279c-0.593-0.517-1.237-0.973-1.951-1.31c-0.354-0.173-0.726-0.312-1.109-0.424
					c-0.209-0.066-0.345-0.11-0.522-0.099c-0.177,0.006-0.362,0.04-0.54,0.095c-0.348,0.107-0.713,0.31-0.797,0.566
					c-0.104,0.262,0.029,0.632,0.24,0.945c0.457,0.616,1.108,1.199,1.738,1.735c1.65,1.382,3.516,2.538,4.937,4.179
					c0.343,0.421,0.674,0.834,0.943,1.321c0.258,0.474,0.464,1.089,0.253,1.694c-0.216,0.594-0.743,0.973-1.293,1.122
					c-0.555,0.148-1.115,0.087-1.622-0.036l-0.051-0.012l-0.042-0.031c-2.906-2.198-5.663-4.284-8.228-6.223l0.292-0.356
					c1.465,1.317,2.854,2.597,4.158,3.838c0.651,0.622,1.28,1.233,1.88,1.844c0.574,0.619,1.248,1.174,1.547,2.027
					c0.144,0.419,0.098,0.936-0.178,1.296c-0.264,0.36-0.662,0.575-1.057,0.662c-0.793,0.211-1.59-0.049-2.207-0.368
					c-1.279-0.648-2.225-1.533-3.167-2.187c-0.466-0.336-0.922-0.631-1.368-0.878c-0.464-0.272-0.831-0.59-1.177-0.881
					c-0.684-0.589-1.254-1.097-1.738-1.484c-0.483-0.388-0.868-0.667-1.135-0.843c-0.267-0.177-0.408-0.265-0.402-0.278
					c0.005-0.009,0.158,0.057,0.44,0.215c0.283,0.157,0.685,0.419,1.185,0.792c0.501,0.372,1.09,0.867,1.784,1.436
					c0.348,0.28,0.725,0.588,1.157,0.83c0.461,0.244,0.931,0.537,1.41,0.869c0.964,0.648,1.93,1.516,3.153,2.114
					c0.611,0.3,1.291,0.509,1.981,0.319c0.334-0.077,0.646-0.259,0.842-0.532c0.197-0.269,0.23-0.626,0.115-0.964
					c-0.239-0.692-0.89-1.254-1.472-1.861c-0.6-0.6-1.232-1.204-1.885-1.819c-1.308-1.228-2.705-2.497-4.173-3.802l0.292-0.356
					c2.572,1.929,5.339,4.003,8.254,6.189l-0.092-0.044c0.461,0.111,0.94,0.153,1.371,0.035c0.421-0.112,0.81-0.414,0.943-0.802
					c0.268-0.822-0.489-1.746-1.105-2.509c-1.35-1.561-3.188-2.705-4.88-4.117c-0.659-0.567-1.29-1.112-1.837-1.846
					c-0.239-0.369-0.483-0.864-0.294-1.415c0.23-0.547,0.718-0.736,1.132-0.88c0.218-0.066,0.443-0.109,0.678-0.117
					c0.239-0.017,0.505,0.06,0.685,0.122c0.405,0.119,0.804,0.269,1.182,0.454c0.763,0.362,1.45,0.852,2.064,1.39
					c1.221,1.089,2.245,2.278,3.391,3.294c0.573,0.504,1.132,1.039,1.751,1.368c0.304,0.162,0.647,0.268,0.884,0.183
					c0.282-0.105,0.541-0.33,0.706-0.605c0.341-0.556,0.394-1.294,0.201-1.912c-0.201-0.636-0.618-1.192-1.086-1.682
					c-0.967-0.963-2.023-1.85-2.982-2.735c-1.944-1.756-3.756-3.393-5.414-4.891c-0.413-0.366-0.818-0.759-1.208-1.074
					c-0.39-0.324-0.85-0.385-1.317-0.259c-0.919,0.282-1.816,0.68-2.639,0.98c-1.645,0.628-3.067,1.172-4.246,1.622
					c-1.138,0.425-2.037,0.761-2.691,1.006c-0.286,0.101-0.517,0.183-0.705,0.249C185.867,232.499,185.783,232.522,185.78,232.514z"
					/>
			</g>
		</g>
		<g>
			<path style="fill:#FFFFFF;" d="M176.034,242.21c-0.1,0.104-1.561-1.146-3.262-2.79c-1.702-1.645-3-3.061-2.9-3.165
				c0.1-0.103,1.56,1.146,3.262,2.79C174.836,240.69,176.134,242.107,176.034,242.21z"/>
		</g>
		<g>
			<path style="fill:#B78876;" d="M328.081,155.338c5.06-7.577,9.018-14.058,11.314-22.875c0.198-0.761,0.402-1.558,0.927-2.145
				c0.525-0.586,1.481-0.87,2.111-0.398c0.727,0.544,0.604,1.649,0.407,2.535c-0.642,2.889-1.632,6.015-2.274,8.904
				c1.146-2.547,2.984-7.294,4.13-9.842c0.311-0.691,0.638-1.404,1.209-1.901c0.571-0.497,1.459-0.716,2.094-0.303
				c0.966,0.628,0.719,2.085,0.359,3.179c-0.766,2.324-2.716,7.469-3.482,9.793c1.077-2.059,2.559-5.504,3.636-7.563
				c0.557-1.065,1.466-2.307,2.639-2.046c0.814,0.181,1.3,1.082,1.293,1.916c-0.007,0.834-0.387,1.613-0.759,2.359
				c-0.76,1.526-0.741,1.618-1.501,3.145c-0.313,0.629-1.915,3.799-1.915,3.799s1.864-1.609,3.159-0.235
				c0.645,0.685,0.177,1.827-0.181,2.697c0,0-1.736,5.46-3.187,8.239c-2.21,4.232-5.309,5.895-5.384,5.631l-2.873,4.532
				L328.081,155.338z"/>
			<g>
				<path style="fill:#B78876;" d="M348.547,143.842c-0.943,1.882-1.886,3.763-2.829,5.645c-0.235,0.469-0.473,0.949-0.541,1.469
					c-0.067,0.52,0.068,1.097,0.471,1.431c0.419,0.347,1.043,0.359,1.546,0.152c0.503-0.207,0.94-0.571,1.267-1.005
					c0.408-0.543,2.261-4.349,2.496-4.788"/>
				<g>
					<path style="fill:#AA6550;" d="M350.958,146.745c0.059,0.031-0.33,0.968-1.027,2.455c-0.375,0.745-0.721,1.617-1.365,2.589
						c-0.364,0.451-0.849,0.854-1.486,1.059c-0.321,0.094-0.675,0.117-1.026,0.026c-0.351-0.084-0.689-0.327-0.882-0.649
						c-0.394-0.65-0.295-1.414-0.072-1.988c0.228-0.588,0.513-1.068,0.755-1.556c0.483-0.918,0.931-1.772,1.34-2.55
						c0.777-1.445,1.289-2.322,1.354-2.29s-0.332,0.968-1.025,2.455c-0.379,0.794-0.794,1.664-1.241,2.6
						c-0.228,0.489-0.513,0.999-0.704,1.516c-0.193,0.509-0.234,1.094,0.036,1.539c0.254,0.438,0.835,0.55,1.324,0.406
						c0.494-0.15,0.937-0.489,1.256-0.872c0.573-0.821,1.01-1.755,1.409-2.452C350.381,147.592,350.889,146.71,350.958,146.745z"/>
				</g>
			</g>
			<g>
				<path style="fill:#B78876;" d="M329.744,154.972c0.904,0.868,2.416,0.683,3.501,0.054c1.084-0.628,1.924-1.606,2.961-2.31
					c3.099-2.107,7.505-1.522,10.499-3.776c0.417-0.314,0.834-0.833,0.616-1.307c-0.202-0.44-0.792-0.499-1.276-0.496
					c-4.138,0.031-8.276,0.062-12.414,0.093"/>
				<g>
					<path style="fill:#AA6550;" d="M333.63,147.23c0-0.049,0.477-0.099,1.341-0.148c0.864-0.049,2.115-0.096,3.66-0.14
						c1.608-0.034,3.435-0.074,5.429-0.116c0.513-0.008,1.036-0.016,1.569-0.023c0.498,0.031,1.162-0.151,1.816,0.408
						c0.313,0.295,0.351,0.826,0.184,1.16c-0.152,0.344-0.385,0.584-0.636,0.792c-0.497,0.368-1.01,0.687-1.574,0.934
						c-2.255,0.998-4.546,1.149-6.46,1.732c-0.961,0.276-1.837,0.636-2.566,1.117c-0.729,0.479-1.342,1.065-1.964,1.548
						c-1.207,1.032-2.621,1.385-3.509,1.176c-0.915-0.193-1.207-0.695-1.176-0.697c0.04-0.059,0.387,0.337,1.216,0.424
						c0.827,0.097,2.031-0.259,3.152-1.291c0.58-0.488,1.175-1.102,1.952-1.646c0.777-0.544,1.711-0.95,2.707-1.255
						c1.985-0.633,4.272-0.82,6.353-1.751c0.518-0.225,0.998-0.527,1.426-0.838c0.407-0.316,0.612-0.751,0.394-0.923
						c-0.208-0.225-0.778-0.221-1.31-0.213c-0.533,0-1.057,0-1.569,0c-1.995-0.013-3.822-0.025-5.43-0.036
						c-1.546-0.02-2.797-0.049-3.662-0.085C334.109,147.322,333.63,147.279,333.63,147.23z"/>
				</g>
			</g>
			<path style="fill:#B78876;" d="M248.949,151.511l42.325,30.158l37.003-26.471l12.084,9.031c0,0-31.079,41.846-47.261,46.45
				c0,0-3.747,0.519-7.69-0.837c-3.943-1.356-31.639-16.913-31.639-16.913L248.949,151.511z"/>
			<polygon style="fill:#E8505B;" points="328.277,155.199 340.361,164.23 334.929,171.246 320.455,160.794 			"/>
			<g>
				<path style="fill:#FFFFFF;" d="M328.396,156.041c0.097,0.105-1.2,1.471-2.934,3.014c-0.868,0.771-1.683,1.438-2.308,1.881
					c-0.313,0.222-0.577,0.388-0.779,0.482c-0.1,0.047-0.188,0.075-0.255,0.081c-0.1,0.016-0.108-0.091-0.083-0.075
					c-0.024,0.092,1.356-1.234,3.079-2.759C326.844,157.129,328.298,155.935,328.396,156.041z"/>
			</g>
			<g>
				<path style="fill:#263238;" d="M337.476,129.189c-0.063,0.129-3.269-1.299-7.161-3.19c-3.893-1.892-6.997-3.529-6.934-3.659
					c0.063-0.129,3.269,1.299,7.162,3.19C334.435,127.422,337.539,129.06,337.476,129.189z"/>
			</g>
			<g>
				<path style="fill:#263238;" d="M343.284,125.8c-0.13,0.061-2.464-4.619-5.213-10.453c-2.75-5.836-4.872-10.615-4.742-10.677
					c0.13-0.061,2.464,4.618,5.213,10.455C341.291,120.959,343.414,125.739,343.284,125.8z"/>
			</g>
			<g>
				<path style="fill:#263238;" d="M353.153,107.214c0.138,0.039-0.776,3.689-2.042,8.151c-1.266,4.464-2.405,8.049-2.543,8.01
					c-0.138-0.039,0.776-3.688,2.042-8.152C351.876,110.761,353.015,107.175,353.153,107.214z"/>
			</g>
			<g>
				<path style="fill:#263238;" d="M360.729,122.489c0.081,0.128-1.378,1.167-3.013,2.633c-1.642,1.459-2.84,2.791-2.957,2.696
					c-0.109-0.082,0.931-1.591,2.611-3.084C359.043,123.234,360.66,122.372,360.729,122.489z"/>
			</g>
		</g>
		<g>
			<path style="fill:#E8505B;" d="M199.436,111.309c-3.443,0.8-7.15-0.737-9.575-3.409c-2.425-2.672-3.676-6.328-4.047-9.988
				c-0.785-7.759,2.245-15.67,7.382-21.341c5.137-5.671,12.212-9.201,19.553-10.695c5.692-1.159,11.676-1.138,17.203,0.695
				c5.527,1.832,10.562,5.569,13.533,10.764c2.391,4.182,3.371,9.138,3.287,14.007c-0.075,4.361-1.034,8.834-3.525,12.337
				c-2.491,3.503-6.706,5.854-10.842,5.222"/>
			<g>
				<g>
					<g>
						<g>
							<g>
								<g>
									<g>
										<g>
											<g>
												<g>
													<path style="fill:#B78876;" d="M203.874,154.146l25.577-1.173l-1.266-19.905c0,0,9.866-1.534,9.988-11.398
														c0.122-9.864-1.588-32.516-1.588-32.516l0,0c-11.419-4.908-24.6-3.251-34.449,4.331l-1.462,1.125L203.874,154.146z"/>
												</g>
											</g>
										</g>
									</g>
									<g>
										<g>
											<g>
												<g>
													<path style="fill:#AA6550;" d="M228.201,132.926c0,0-6.234,0.507-12.86-3.655c0,0,3.04,7.099,12.883,6.211
														L228.201,132.926z"/>
												</g>
											</g>
										</g>
									</g>
								</g>
							</g>
						</g>
						<g>
							<g>
								<g>
									<g>
										<g>
											<path style="fill:#B78876;" d="M201.89,104.827c-0.168-0.073-6.778-2.005-6.563,4.739
												c0.216,6.744,6.942,5.137,6.947,4.943C202.28,114.315,201.89,104.827,201.89,104.827z"/>
										</g>
									</g>
								</g>
							</g>
							<g>
								<g>
									<g>
										<g>
											<g>
												<path style="fill:#AA6550;" d="M200.133,112.02c-0.03-0.021-0.115,0.086-0.31,0.184
													c-0.191,0.095-0.522,0.166-0.878,0.046c-0.721-0.239-1.357-1.351-1.428-2.565c-0.037-0.613,0.073-1.202,0.275-1.693
													c0.19-0.5,0.498-0.855,0.855-0.93c0.354-0.094,0.615,0.113,0.704,0.3c0.096,0.186,0.058,0.322,0.094,0.332
													c0.02,0.016,0.141-0.117,0.078-0.394c-0.032-0.133-0.116-0.29-0.279-0.414c-0.166-0.127-0.406-0.186-0.655-0.151
													c-0.519,0.052-0.972,0.546-1.194,1.085c-0.251,0.542-0.389,1.204-0.347,1.893c0.087,1.357,0.823,2.607,1.807,2.858
													c0.478,0.108,0.87-0.047,1.069-0.213C200.126,112.183,200.156,112.031,200.133,112.02z"/>
											</g>
										</g>
									</g>
								</g>
							</g>
						</g>
						<g>
							<g>
								<g>
									<g>
										<g>
											<g>
												<g>
													<g>
														<g>
															<g>
																<path style="fill:#263238;" d="M233.004,104.441c0.026,0.744-0.582,1.38-1.358,1.421
																	c-0.775,0.042-1.426-0.526-1.452-1.27c-0.026-0.744,0.582-1.381,1.357-1.422
																	C232.327,103.128,232.978,103.697,233.004,104.441z"/>
															</g>
														</g>
													</g>
												</g>
												<g>
													<g>
														<g>
															<g>
																<g>
																	<path style="fill:#263238;" d="M234.718,103.03c-0.175,0.184-1.242-0.606-2.758-0.602
																		c-1.514-0.018-2.627,0.762-2.791,0.576c-0.081-0.082,0.097-0.414,0.582-0.766c0.477-0.351,1.29-0.693,2.234-0.689
																		c0.944,0.005,1.739,0.353,2.195,0.709C234.646,102.616,234.804,102.948,234.718,103.03z"/>
																</g>
															</g>
														</g>
													</g>
												</g>
											</g>
											<g>
												<g>
													<g>
														<g>
															<g>
																<path style="fill:#263238;" d="M218.159,104.614c0.026,0.744-0.582,1.379-1.358,1.421
																	c-0.775,0.042-1.426-0.526-1.452-1.27c-0.026-0.744,0.582-1.38,1.357-1.422
																	C217.481,103.301,218.132,103.87,218.159,104.614z"/>
															</g>
														</g>
													</g>
												</g>
												<g>
													<g>
														<g>
															<g>
																<g>
																	<path style="fill:#263238;" d="M219.817,103.313c-0.175,0.184-1.244-0.606-2.758-0.602
																		c-1.514-0.018-2.627,0.762-2.791,0.576c-0.08-0.082,0.096-0.413,0.582-0.766c0.477-0.351,1.29-0.693,2.234-0.689
																		c0.944,0.005,1.739,0.353,2.195,0.709C219.744,102.899,219.903,103.231,219.817,103.313z"/>
																</g>
															</g>
														</g>
													</g>
												</g>
											</g>
											<g>
												<g>
													<g>
														<g>
															<g>
																<path style="fill:#263238;" d="M225.319,114.555c-0.007-0.086,0.935-0.249,2.462-0.444
																	c0.387-0.04,0.753-0.117,0.819-0.381c0.091-0.28-0.071-0.697-0.258-1.147c-0.364-0.937-0.745-1.918-1.145-2.947
																	c-1.59-4.197-2.74-7.648-2.571-7.71c0.17-0.063,1.596,3.288,3.185,7.485c0.383,1.035,0.749,2.021,1.097,2.965
																	c0.146,0.44,0.398,0.939,0.201,1.519c-0.104,0.289-0.388,0.499-0.636,0.566c-0.248,0.076-0.466,0.08-0.658,0.091
																	C226.278,114.635,225.324,114.642,225.319,114.555z"/>
															</g>
														</g>
													</g>
												</g>
											</g>
											<g>
												<g>
													<g>
														<g>
															<g>
																<path style="fill:#263238;" d="M220.857,115.604c0.247-0.014,0.25,1.631,1.658,2.799
																	c1.406,1.172,3.16,0.987,3.173,1.217c0.023,0.103-0.391,0.32-1.131,0.34c-0.726,0.025-1.787-0.208-2.649-0.923
																	c-0.859-0.716-1.229-1.672-1.285-2.347C220.561,116.002,220.745,115.594,220.857,115.604z"/>
															</g>
														</g>
													</g>
												</g>
											</g>
										</g>
									</g>
								</g>
								<g>
									<g>
										<g>
											<g>
												<path style="fill:#263238;" d="M220.499,99.399c-0.15,0.412-1.663,0.217-3.442,0.431
													c-1.783,0.179-3.217,0.699-3.453,0.33c-0.105-0.177,0.145-0.565,0.725-0.964c0.575-0.398,1.492-0.777,2.559-0.896
													c1.068-0.117,2.045,0.053,2.693,0.316C220.235,98.88,220.563,99.203,220.499,99.399z"/>
											</g>
										</g>
									</g>
								</g>
								<g>
									<g>
										<g>
											<g>
												<path style="fill:#263238;" d="M234.507,99.987c-0.267,0.344-1.311-0.013-2.567-0.03
													c-1.255-0.061-2.319,0.231-2.564-0.129c-0.107-0.175,0.06-0.52,0.525-0.846c0.458-0.325,1.223-0.59,2.086-0.564
													c0.863,0.028,1.611,0.339,2.047,0.692C234.479,99.464,234.624,99.819,234.507,99.987z"/>
											</g>
										</g>
									</g>
								</g>
							</g>
						</g>
					</g>
				</g>
			</g>
			<path style="fill:#E8505B;" d="M201.127,104.689c8.881-4.808,15.894-11.791,23.23-18.73c4.395,4.963,9.588,9.218,15.318,12.552
				c-0.204-3.272-0.46-6.707-2.24-9.461c-1.921-2.973-5.385-4.68-8.882-5.231s-7.068-0.083-10.564,0.473
				c-5.048,0.804-10.176,1.832-14.597,4.398c-2.074,1.204-4.034,2.83-4.939,5.051c-1.419,3.483-0.453,7.313,1.016,10.775"/>
			<path style="fill:#455A64;" d="M225.652,81.265c0.513-2.61,0.574-5.339-0.101-7.911c-0.674-2.573-2.119-4.983-4.246-6.58
				c-2.187-1.642-4.964-2.345-7.696-2.452c-2.732-0.107-5.452,0.342-8.147,0.807c0.967,3.524,3.379,6.629,6.555,8.438
				c3.176,1.809,7.077,2.3,10.602,1.334c0.772-0.211,1.699-0.457,2.293,0.08c0.374,0.339,0.472,0.882,0.516,1.384
				c0.153,1.715-0.051,3.461-0.596,5.094"/>
			<g>
				<path style="fill:#263238;" d="M227.751,84.166c-0.368,1.782-2.112,2.929-3.894,2.56c-1.782-0.368-2.929-2.112-2.56-3.894
					c0.368-1.782,2.112-2.929,3.894-2.56C226.973,80.64,228.119,82.384,227.751,84.166z"/>
				<g>
					<path style="fill:#FFFFFF;" d="M223.227,85.323c-0.027,0.056-0.371-0.029-0.753-0.43c-0.375-0.385-0.75-1.142-0.614-2.014
						c0.146-0.871,0.742-1.47,1.219-1.717c0.489-0.26,0.842-0.231,0.85-0.17c0.018,0.078-0.281,0.181-0.647,0.478
						c-0.364,0.287-0.795,0.814-0.908,1.493c-0.107,0.68,0.134,1.316,0.389,1.703C223.018,85.062,223.269,85.254,223.227,85.323z"/>
				</g>
			</g>
			<g>
				<path style="fill:#263238;" d="M205.458,65.22c0.005-0.036,0.342-0.014,0.946,0.055c0.603,0.08,1.474,0.208,2.54,0.432
					c2.131,0.436,5.047,1.231,8.123,2.499c1.536,0.639,2.972,1.302,4.239,2.011c1.264,0.711,2.32,1.527,3.051,2.362
					c0.738,0.829,1.158,1.64,1.363,2.219c0.209,0.582,0.231,0.926,0.203,0.932c-0.087,0.042-0.341-1.357-1.836-2.901
					c-1.452-1.579-4.185-2.876-7.218-4.141c-3.045-1.255-5.912-2.097-8.008-2.621C206.766,65.539,205.445,65.299,205.458,65.22z"/>
			</g>
			<g>
				<path style="fill:#263238;" d="M189.181,107.083c-0.017,0.007-0.084-0.134-0.196-0.411c-0.117-0.274-0.255-0.695-0.379-1.25
					c-0.245-1.099-0.411-2.804,0.156-4.788c0.282-0.985,0.747-2.023,1.427-3.022c0.673-1.01,1.605-1.917,2.637-2.778
					c2.094-1.713,4.764-3.052,7.611-4.215c5.702-2.33,11.021-4.02,14.907-5.09c1.944-0.534,3.528-0.924,4.628-1.168
					c0.549-0.127,0.979-0.211,1.27-0.266c0.292-0.054,0.447-0.075,0.451-0.057c0.009,0.037-0.589,0.213-1.672,0.52
					c-1.163,0.337-2.707,0.784-4.576,1.326c-3.85,1.157-9.133,2.897-14.811,5.217c-2.83,1.156-5.454,2.459-7.508,4.107
					c-1.016,0.83-1.927,1.696-2.584,2.651c-0.668,0.948-1.134,1.937-1.428,2.88c-0.591,1.898-0.49,3.554-0.31,4.644
					C188.995,106.483,189.23,107.066,189.181,107.083z"/>
			</g>
			<g>
				<path style="fill:#263238;" d="M191.167,80.531c-0.015-0.011,0.042-0.112,0.164-0.297c0.124-0.184,0.328-0.44,0.625-0.741
					c0.595-0.593,1.614-1.334,3.056-1.817c1.433-0.5,3.271-0.679,5.248-0.482c1.985,0.183,4.099,0.677,6.317,1.136
					c4.441,0.937,8.455,1.814,11.355,2.475c1.368,0.323,2.517,0.593,3.429,0.808c0.807,0.202,1.25,0.331,1.242,0.366
					c-0.008,0.035-0.464-0.026-1.284-0.168c-0.92-0.172-2.081-0.388-3.462-0.646c-2.919-0.568-6.945-1.388-11.385-2.325
					c-2.222-0.46-4.326-0.965-6.258-1.168c-1.932-0.218-3.693-0.082-5.089,0.355c-1.402,0.421-2.411,1.085-3.031,1.615
					C191.476,80.182,191.204,80.559,191.167,80.531z"/>
			</g>
			<g>
				<path style="fill:#263238;" d="M243.485,77.336c-0.028,0.03-0.245-0.151-0.646-0.451c-0.402-0.294-0.994-0.725-1.816-1.022
					c-0.817-0.303-1.876-0.384-3.006-0.114c-1.14,0.26-2.342,0.754-3.549,1.388c-2.4,1.296-4.494,2.719-6.195,3.408
					c-0.84,0.362-1.552,0.576-2.051,0.684c-0.499,0.11-0.783,0.123-0.789,0.093c-0.019-0.084,1.081-0.312,2.687-1.111
					c1.627-0.758,3.653-2.207,6.107-3.534c1.234-0.647,2.488-1.15,3.689-1.395c1.207-0.265,2.381-0.136,3.241,0.239
					c0.867,0.366,1.444,0.863,1.814,1.21C243.339,77.085,243.507,77.314,243.485,77.336z"/>
			</g>
			<g>
				<path style="fill:#263238;" d="M245.583,98.957c-0.118-0.006,0.247-1.543-0.221-3.941c-0.229-1.191-0.733-2.568-1.591-3.916
					c-0.873-1.336-2.13-2.613-3.729-3.542c-3.216-1.889-6.59-2.629-8.98-3.147c-2.411-0.496-3.917-0.765-3.904-0.844
					c0.006-0.035,0.388-0.011,1.075,0.067c0.687,0.078,1.678,0.208,2.899,0.415c2.418,0.43,5.86,1.116,9.177,3.061
					c1.666,0.967,2.98,2.323,3.867,3.732c0.874,1.422,1.359,2.869,1.548,4.107c0.197,1.24,0.168,2.26,0.079,2.951
					C245.715,98.591,245.611,98.962,245.583,98.957z"/>
			</g>
			<g>
				<path style="fill:#FFFFFF;" d="M190.309,104.516c-0.016,0.008-0.092-0.11-0.222-0.343c-0.12-0.238-0.338-0.572-0.526-1.045
					c-0.433-0.921-0.917-2.321-1.304-4.1c-0.375-1.779-0.649-3.946-0.592-6.355c0.045-2.405,0.369-5.066,1.254-7.72
					c0.885-2.656,2.296-4.961,3.82-6.829c1.536-1.866,3.204-3.294,4.707-4.319c1.511-1.02,2.838-1.679,3.783-2.05
					c0.463-0.208,0.846-0.313,1.098-0.402c0.254-0.082,0.39-0.116,0.396-0.099c0.053,0.112-2.135,0.761-5.065,2.853
					c-1.452,1.048-3.062,2.477-4.546,4.32c-1.471,1.845-2.837,4.105-3.699,6.692c-0.862,2.586-1.198,5.199-1.268,7.565
					c-0.082,2.371,0.149,4.509,0.474,6.272c0.335,1.763,0.759,3.16,1.13,4.095C190.108,103.989,190.351,104.495,190.309,104.516z"/>
			</g>
			<g>
				<path style="fill:#263238;" d="M200.078,113.202c-0.016-0.056,0.467-0.168,1.045,0.268c0.272,0.216,0.555,0.571,0.636,1.061
					c0.091,0.492-0.11,1.064-0.516,1.449c-0.401,0.388-0.989,0.567-1.481,0.432c-0.49-0.129-0.811-0.464-0.981-0.77
					c-0.347-0.655-0.091-1.118-0.043-1.078c0.082,0.01,0.005,0.423,0.353,0.88c0.168,0.219,0.442,0.438,0.776,0.5
					c0.328,0.069,0.721-0.059,1.016-0.34c0.294-0.284,0.441-0.668,0.4-1.008c-0.033-0.347-0.215-0.646-0.406-0.851
					C200.477,113.326,200.066,113.284,200.078,113.202z"/>
			</g>
		</g>
	</g>
</g>
<g id="Plant">
	<g>
		<g>
			<path style="fill:#E8505B;" d="M117.453,432.46c0.889-3.526-1.44-7.048-4.042-9.587c-2.602-2.54-5.709-4.811-7.075-8.181
				c-2.212-5.46,0.68-12.562-3.068-17.106c-2.205-2.673-6.137-3.55-8.096-6.408c-1.028-1.499-1.368-3.347-1.779-5.118
				c-2.095-9.032-6.669-17.476-13.09-24.164c-0.398,8.056,1.424,16.211,5.214,23.33c1.524,2.862,3.391,5.65,3.908,8.851
				c0.841,5.198-2.032,10.573-0.726,15.673c1.495,5.833,8.079,9.706,8.424,15.717c0.292,5.082-4.114,9.57-3.755,14.648
				c0.153,2.162,1.168,4.165,2.296,6.016c3.968,6.513,9.768,10.981,18.52,10.785l10.722,0.315L117.453,432.46z"/>
		</g>
		<g style="opacity:0.3;">
			<g>
				<path d="M117.453,432.46c0.889-3.526-1.44-7.048-4.042-9.587c-2.602-2.54-5.709-4.811-7.075-8.181
					c-2.212-5.46,0.68-12.562-3.068-17.106c-2.205-2.673-6.137-3.55-8.096-6.408c-1.028-1.499-1.368-3.347-1.779-5.118
					c-2.095-9.032-6.669-17.476-13.09-24.164c-0.398,8.056,1.424,16.211,5.214,23.33c1.524,2.862,3.391,5.65,3.908,8.851
					c0.841,5.198-2.032,10.573-0.726,15.673c1.495,5.833,8.079,9.706,8.424,15.717c0.292,5.082-4.114,9.57-3.755,14.648
					c0.153,2.162,1.168,4.165,2.296,6.016c3.968,6.513,9.768,10.981,18.52,10.785l10.722,0.315L117.453,432.46z"/>
			</g>
		</g>
		<g>
			<g>
				<g>
					<g>
						<path style="fill:#263238;" d="M127.178,457.304c0,0,1.023,0.232,2.951-0.081c0.96-0.146,2.141-0.407,3.479-0.897
							c1.329-0.495,2.842-1.198,4.289-2.381c0.694-0.614,1.387-1.369,1.756-2.369c0.364-0.994,0.425-2.086,0.486-3.206
							c0.051-1.121,0.046-2.288,0.23-3.469c0.175-1.181,0.631-2.344,1.29-3.455c1.252-2.228,3.338-4.341,3.999-7.36
							c0.717-2.97,0.172-6.175-0.345-9.395c-0.516-3.212-1.018-6.716,0.193-10.072c1.131-3.359,3.465-6.399,4.619-10.186
							c1.149-3.824,0.58-7.927,0.804-11.978c0.102-2.035,0.483-4.071,1.363-5.96c0.856-1.902,2.049-3.699,2.977-5.702
							c1.88-4.05,2.19-8.629,2.685-13.117c0.241-2.262,0.484-4.547,0.73-6.854c0.242-2.319,0.435-4.628,1.152-6.863
							c0.648-2.251,1.592-4.429,2.527-6.649c0.457-1.116,0.942-2.234,1.224-3.472c0.203-1.265,0.256-2.448,0.325-3.689
							c0.107-2.459-0.009-4.949-0.328-7.419c-0.305-2.473-0.766-4.923-1.045-7.4c-0.017-0.146-0.035-0.293-0.051-0.427l-0.058-0.494
							l-0.438,0.222c-2.289,1.162-4.245,2.886-5.743,4.903c-1.524,2.004-2.629,4.261-3.509,6.555
							c-1.765,4.616-2.382,9.447-3.259,14.058c-0.855,4.611-1.991,9.149-4.331,12.991c-1.164,1.916-2.576,3.667-3.809,5.536
							c-1.23,1.856-2.31,3.894-2.626,6.125c-0.608,4.539,1.912,8.508,1.415,12.526c-0.174,1.997-0.958,3.866-1.924,5.575
							c-0.964,1.718-2.099,3.313-3.175,4.916c-1.076,1.602-2.099,3.227-2.85,4.962c-0.764,1.729-1.18,3.577-1.287,5.382
							c-0.241,3.617,0.292,7.043,0.046,10.283c-0.199,3.244-1.322,6.191-2.596,8.826c-1.282,2.645-2.711,5.038-3.906,7.358
							c-0.602,1.159-1.155,2.29-1.606,3.426c-0.477,1.133-0.708,2.293-0.922,3.394c-0.339,2.225-0.293,4.295-0.044,6.12
							c0.487,3.669,1.871,6.306,3.111,7.786c0.284,0.395,0.614,0.674,0.873,0.935c0.253,0.269,0.503,0.451,0.707,0.594
							C126.964,457.171,127.178,457.304,127.178,457.304c0.047-0.055-0.886-0.541-2.088-2.041c-1.189-1.488-2.513-4.105-2.954-7.734
							c-0.226-1.803-0.25-3.847,0.102-6.031c0.22-1.08,0.456-2.216,0.929-3.315c0.45-1.109,1.01-2.234,1.616-3.38
							c1.205-2.299,2.649-4.683,3.959-7.345c1.3-2.648,2.466-5.653,2.687-8.982c0.263-3.308-0.254-6.747-0.001-10.279
							c0.113-1.766,0.518-3.528,1.263-5.201c0.733-1.679,1.742-3.273,2.817-4.863c1.076-1.592,2.224-3.193,3.215-4.947
							c0.992-1.743,1.821-3.69,2.013-5.803c0.492-4.28-2.01-8.276-1.39-12.495c0.298-2.087,1.324-4.036,2.537-5.859
							c1.214-1.835,2.633-3.588,3.831-5.552c2.414-3.952,3.568-8.577,4.432-13.207c0.885-4.64,1.503-9.419,3.237-13.94
							c0.863-2.247,1.944-4.448,3.417-6.382c1.449-1.949,3.32-3.592,5.501-4.701l-0.496-0.271c0.016,0.136,0.033,0.284,0.051,0.432
							c0.284,2.507,0.745,4.962,1.047,7.406c0.315,2.443,0.429,4.884,0.326,7.306c-0.063,1.195-0.129,2.45-0.309,3.578
							c-0.256,1.129-0.73,2.244-1.184,3.349c-0.929,2.211-1.886,4.423-2.546,6.722c-0.732,2.288-0.932,4.686-1.167,6.976
							c-0.243,2.309-0.483,4.596-0.721,6.86c-0.487,4.508-0.797,9.013-2.607,12.922c-0.894,1.946-2.085,3.748-2.967,5.712
							c-0.91,1.961-1.307,4.112-1.402,6.181c-0.21,4.138,0.351,8.18-0.747,11.851c-1.09,3.654-3.412,6.71-4.574,10.176
							c-1.245,3.502-0.7,7.119-0.171,10.322c0.536,3.225,1.074,6.363,0.399,9.218c-0.603,2.883-2.63,4.978-3.907,7.268
							c-0.665,1.137-1.139,2.367-1.309,3.592c-0.181,1.222-0.164,2.399-0.206,3.511c-0.049,1.105-0.106,2.188-0.44,3.118
							c-0.331,0.928-0.983,1.663-1.65,2.266c-1.393,1.166-2.879,1.884-4.186,2.392c-1.316,0.504-2.481,0.785-3.429,0.951
							c-0.949,0.178-1.686,0.206-2.179,0.223C127.434,457.295,127.178,457.304,127.178,457.304z"/>
					</g>
				</g>
				<g>
					<g>
						<path style="fill:#263238;" d="M160.334,330.818c-0.012-0.002-0.046,0.108-0.102,0.325c-0.061,0.257-0.137,0.575-0.231,0.967
							c-0.206,0.845-0.45,2.122-0.846,3.716c-0.412,1.59-1.374,3.393-2.193,5.612c-0.852,2.202-1.714,4.753-2.505,7.619
							c-0.801,2.863-1.508,6.042-2.246,9.448c-0.762,3.399-1.521,7.045-3.372,10.489c-0.869,1.746-1.848,3.515-2.623,5.447
							c-0.794,1.933-1.217,4.043-1.509,6.16c-0.491,4.249-1.246,8.566-2.237,12.983c-2.1,8.798-4.1,17.177-5.921,24.806
							c-1.866,7.604-3.548,14.456-4.966,20.232c-1.379,5.724-2.499,10.374-3.29,13.654c-0.364,1.574-0.651,2.817-0.861,3.721
							c-0.084,0.394-0.152,0.713-0.207,0.972c-0.043,0.22-0.059,0.334-0.047,0.337c0.011,0.003,0.051-0.105,0.116-0.32
							c0.073-0.254,0.163-0.568,0.273-0.955c0.24-0.896,0.569-2.129,0.986-3.689c0.841-3.267,2.034-7.9,3.502-13.601
							c1.459-5.766,3.189-12.606,5.109-20.196c1.839-7.632,3.858-16.013,5.978-24.813c0.992-4.411,1.755-8.807,2.233-13.036
							c0.286-2.103,0.689-4.137,1.452-6.011c0.747-1.883,1.711-3.642,2.58-5.408c1.866-3.509,2.63-7.265,3.362-10.651
							c0.714-3.414,1.391-6.584,2.158-9.441c0.757-2.859,1.582-5.406,2.395-7.61c0.776-2.212,1.707-4.035,2.092-5.679
							c0.362-1.634,0.559-2.897,0.723-3.758c0.066-0.397,0.12-0.719,0.164-0.98C160.334,330.935,160.345,330.82,160.334,330.818z"/>
					</g>
				</g>
			</g>
			<g>
				<g>
					<path style="fill:#E8505B;" d="M129.07,457.327c6.979-4.202,8.917-16.847,5.952-24.435c-2.964-7.588-8.116-14.506-8.95-22.609
						c-0.641-6.229,1.363-12.637-0.123-18.72c-2.006-8.21-10.068-14.532-10.023-22.983c0.025-4.742,2.697-9.218,2.455-13.954
						c-0.296-5.809-4.782-10.393-7.573-15.495c-4.272-7.81-4.603-17.071-6.098-25.847c-1.495-8.776-4.896-18.164-12.706-22.437
						c-1.107,7.464-3.041,12.583-2.367,22.682c0.242,3.627,4.496,10.549,5.115,18.497c0.37,4.751,0.634,9.509,0.952,14.264
						c0.309,4.627,0.636,9.338,2.319,13.659c1.29,3.311,3.35,6.314,4.313,9.734c1.813,6.435-0.481,13.429,0.99,19.951
						c1.246,5.525,5.102,10.265,5.916,15.87c1.144,7.876-3.911,16.094-1.257,23.597c1.317,3.723,4.403,6.702,5.296,10.549
						c0.693,2.985-0.026,6.153,0.603,9.152C114.896,453.634,124.144,457.654,129.07,457.327"/>
				</g>
				<g>
					<g>
						<path style="fill:#263238;" d="M93.976,298.238c-0.012,0.002,0,0.145,0.033,0.421c0.042,0.313,0.096,0.717,0.165,1.225
							c0.167,1.076,0.356,2.657,0.732,4.7c0.403,2.055,1.476,4.363,2.338,7.15c0.909,2.778,1.816,5.984,2.622,9.574
							c0.82,3.588,1.511,7.561,2.237,11.837c0.749,4.244,1.518,8.934,3.666,13.377c0.995,2.233,2.11,4.467,2.95,6.849
							c0.861,2.373,1.266,4.929,1.52,7.558c0.392,5.281,1.126,10.77,2.146,16.3c2.207,11.038,4.31,21.551,6.223,31.12
							c2.014,9.531,3.828,18.117,5.356,25.346c1.542,7.176,2.793,12.998,3.669,17.075c0.44,1.978,0.786,3.531,1.032,4.635
							c0.118,0.498,0.212,0.895,0.285,1.202c0.068,0.27,0.109,0.722,0.12,0.719c0.012-0.002-0.006-0.459-0.051-0.733
							c-0.056-0.311-0.128-0.712-0.218-1.216c-0.216-1.111-0.519-2.673-0.905-4.662c-0.825-4.088-2.003-9.925-3.455-17.12
							c-1.486-7.237-3.252-15.834-5.211-25.376c-1.896-9.566-3.98-20.077-6.167-31.111c-1.019-5.535-1.749-10.945-2.153-16.247
							c-0.26-2.643-0.681-5.276-1.571-7.709c-0.866-2.433-1.996-4.676-2.991-6.89c-2.135-4.378-2.903-8.958-3.682-13.216
							c-0.75-4.268-1.471-8.252-2.325-11.847c-0.84-3.598-1.784-6.809-2.732-9.587c-0.906-2.796-2.01-5.085-2.442-7.087
							c-0.41-2.005-0.647-3.602-0.856-4.664c-0.096-0.503-0.173-0.903-0.232-1.213C94.022,298.375,93.987,298.236,93.976,298.238z"
							/>
					</g>
				</g>
			</g>
		</g>
	</g>
</g>
<g id="Magic_Lamp">
	<g>
		<path style="fill:#455A64;" d="M232.728,437.667c0.429,2.595,0.094,5.419-1.458,7.542c-3.402,4.654-11.067,4.335-14.486,8.977
			c-0.588,0.798-1.025,1.833-0.696,2.768c0.426,1.211,1.87,1.664,3.121,1.953c2.501,0.577,5.005,1.154,7.539,1.558
			c7.569,1.207,15.314,0.852,22.91-0.169c3.371-0.453,6.75-1.043,9.925-2.263c0.341-0.131,0.706-0.293,0.875-0.616
			c0.188-0.359,0.074-0.799-0.087-1.171c-0.859-1.99-2.847-3.265-4.872-4.038c-2.025-0.773-4.187-1.167-6.167-2.048
			c-5.205-2.317-8.578-8.199-7.949-13.862"/>
		<path style="fill:#455A64;" d="M290.295,403.873c-3.055-3.054-11.76-2.444-15.273-1.68c-3.513,0.764-15.731,3.36-20.16,4.276
			s-8.553-3.818-8.553-3.818s0.611-0.916,0.916-2.291c0.305-1.375-2.902-5.04-2.902-5.04s1.222-1.985,1.833-4.124
			c0.611-2.138-4.582-2.749-4.582-2.749s-0.382-1.845-1.375-6.873c-1.022-5.175-3.603-5.752-6.351-4.421
			c-3.089,1.496-3.729,11.751-3.729,11.751s-3.971,1.069-4.276,1.68c-0.305,0.611,1.68,3.665,2.444,4.734
			c0.764,1.069-1.68,2.291-3.054,3.818c-1.375,1.527,0,2.596,0,2.596s-1.833,4.124-8.094,4.734
			c-6.262,0.611-9.145-0.274-18.632-7.331c-1.294-0.962-2.457-1.741-3.491-2.371c-4.075-2.482-9.092-3.148-13.512-1.352
			c-8.693,3.532-6.822,12.887-6.822,12.887c1.985,11.302,13.44,9.774,15.883,9.011c2.444-0.763,7.025-5.498,7.025-5.498
			s0.764,2.749,2.749,2.444c1.985-0.306,1.833-2.902,1.833-2.902l5.345,7.942c6.72,9.011,18.021,17.869,29.17,18.48
			c11.149,0.611,29.781-16.494,30.545-17.41c0.764-0.916,9.469-8.858,17.411-11.149c7.942-2.291,12.371,2.444,12.829-0.916
			C297.931,404.942,290.295,403.873,290.295,403.873z M196.322,409.587c0.545-1.564-0.493-3.485-2.1-3.887
			c-1.607-0.402-3.427,0.803-3.684,2.439c-0.257,1.637,1.106,3.341,2.759,3.451c-1.643,1.933-4.179,3.074-6.715,3.021
			c-3.832-0.08-7.431-3.079-8.112-6.851c-0.681-3.772,1.707-7.887,5.349-9.082c2.285-0.75,4.815-0.409,7.06,0.452
			c4.053,1.555,7.416,4.823,9.086,8.831C198.487,407.727,197.287,408.441,196.322,409.587z"/>
		<path style="fill:#455A64;" d="M235.439,370.712c-1.446,0.189-3.005,1.599-3.264,3.033c-0.259,1.435,0.479,2.991,1.745,3.714
			s2.968,0.575,4.102-0.341c1.134-0.916,1.637-2.537,1.239-3.939C238.864,371.776,237.629,370.455,235.439,370.712"/>
		<g>
			<path style="fill:#263238;" d="M246.916,434.779c0.02,0.03-0.199,0.207-0.617,0.504c-0.412,0.305-1.054,0.682-1.879,1.083
				c-0.823,0.409-1.853,0.792-3.027,1.113c-1.179,0.298-2.505,0.52-3.91,0.583c-1.406,0.046-2.745-0.073-3.944-0.279
				c-1.195-0.229-2.252-0.531-3.104-0.875c-0.854-0.336-1.523-0.662-1.957-0.934c-0.439-0.264-0.672-0.423-0.654-0.454
				c0.046-0.084,1.03,0.47,2.736,1.042c1.7,0.577,4.162,1.08,6.903,0.98c2.74-0.112,5.155-0.804,6.805-1.512
				C245.925,435.327,246.864,434.699,246.916,434.779z"/>
		</g>
		<g>
			<path style="fill:#263238;" d="M259.903,456.023c0.011,0.034-0.564,0.247-1.616,0.605c-0.525,0.184-1.171,0.395-1.934,0.599
				c-0.761,0.209-1.622,0.475-2.594,0.683c-1.931,0.477-4.264,0.906-6.873,1.245c-2.613,0.309-5.503,0.511-8.541,0.5
				c-3.039-0.034-5.927-0.278-8.535-0.626c-2.604-0.378-4.931-0.842-6.854-1.346c-0.969-0.222-1.826-0.5-2.584-0.721
				c-0.76-0.215-1.403-0.436-1.925-0.628c-1.047-0.373-1.619-0.595-1.607-0.629c0.012-0.034,0.606,0.123,1.669,0.436
				c0.53,0.161,1.179,0.353,1.943,0.541c0.762,0.193,1.621,0.445,2.59,0.643c1.924,0.456,4.242,0.879,6.832,1.229
				c2.593,0.319,5.459,0.547,8.475,0.581c3.015,0.011,5.884-0.175,8.481-0.456c2.594-0.311,4.918-0.7,6.848-1.128
				c0.972-0.184,1.835-0.423,2.6-0.605c0.767-0.176,1.419-0.358,1.951-0.512C259.295,456.137,259.892,455.989,259.903,456.023z"/>
		</g>
		<g>
			<path style="fill:#263238;" d="M234.189,437.246c0.129-0.026,0.564,2.18,0.257,4.91c-0.292,2.733-1.195,4.792-1.315,4.739
				c-0.148-0.05,0.515-2.136,0.798-4.795C234.228,439.443,234.033,437.262,234.189,437.246z"/>
		</g>
		<g>
			<path style="fill:#263238;" d="M238.401,446.994c-0.13,0.039-0.801-1.96-1.076-4.533c-0.286-2.573-0.061-4.669,0.074-4.659
				c0.152,0.006,0.162,2.076,0.443,4.603C238.112,444.931,238.548,446.956,238.401,446.994z"/>
		</g>
		<g>
			<path style="fill:#263238;" d="M241.778,447.095c-0.113,0.065-1.23-1.932-1.753-4.676c-0.54-2.742-0.248-5.012-0.119-4.993
				c0.157,0.006,0.104,2.229,0.631,4.894C241.043,444.987,241.922,447.031,241.778,447.095z"/>
		</g>
		<g>
			<path style="fill:#263238;" d="M242.853,389.037c-0.04,0.162-3.046-0.741-6.858-0.681c-3.814,0.024-6.799,0.992-6.842,0.83
				c-0.02-0.06,0.699-0.38,1.926-0.706c1.225-0.327,2.968-0.622,4.911-0.645c1.942-0.019,3.691,0.238,4.923,0.538
				C242.146,388.672,242.872,388.976,242.853,389.037z"/>
		</g>
		<g>
			<path style="fill:#263238;" d="M244.261,395.036c0.009,0.069-0.877,0.256-2.324,0.457c-1.447,0.202-3.457,0.408-5.685,0.52
				c-2.228,0.111-4.249,0.107-5.709,0.05c-1.46-0.056-2.36-0.154-2.358-0.223c0.002-0.074,0.905-0.107,2.36-0.145
				c1.456-0.038,3.464-0.092,5.681-0.202c2.216-0.112,4.22-0.258,5.672-0.366C243.35,395.019,244.251,394.962,244.261,395.036z"/>
		</g>
		<g>
			<path style="fill:#263238;" d="M238.589,377.003c0.105,0.089-0.825,1.004-2.347,1.169c-1.521,0.181-2.631-0.503-2.549-0.613
				c0.059-0.142,1.137,0.263,2.491,0.095C237.54,377.514,238.5,376.878,238.589,377.003z"/>
		</g>
		<g>
			<path style="fill:#263238;" d="M247.095,401.879c0.019,0.025-0.219,0.246-0.699,0.583c-0.478,0.339-1.217,0.768-2.187,1.173
				c-1.932,0.829-4.861,1.39-8.062,1.146c-3.201-0.244-5.993-1.057-7.972-1.678c-1.982-0.635-3.18-1.098-3.16-1.163
				c0.022-0.073,1.264,0.267,3.264,0.809c1.999,0.528,4.775,1.273,7.907,1.512c3.129,0.238,5.974-0.249,7.892-0.969
				C246.007,402.59,247.041,401.796,247.095,401.879z"/>
		</g>
		<g>
			<path style="fill:#263238;" d="M229.446,403.709c0.042,0.033-0.522,0.861-1.706,1.955c-1.176,1.094-3.027,2.396-5.321,3.311
				c-2.298,0.907-4.538,1.229-6.145,1.238c-1.612,0.015-2.59-0.201-2.582-0.254c0.008-0.089,0.993-0.006,2.566-0.114
				c1.571-0.103,3.734-0.473,5.969-1.355c2.23-0.89,4.058-2.104,5.273-3.106C228.719,404.385,229.378,403.65,229.446,403.709z"/>
		</g>
		<g>
			<path style="fill:#263238;" d="M232.284,404.917c0.06,0.023-0.149,0.783-0.667,1.946c-0.516,1.162-1.372,2.712-2.551,4.261
				c-1.183,1.548-2.451,2.784-3.434,3.589c-0.984,0.807-1.662,1.21-1.7,1.158c-0.105-0.129,2.413-2.009,4.72-5.063
				C230.985,407.776,232.133,404.85,232.284,404.917z"/>
		</g>
		<g>
			<path style="fill:#263238;" d="M235.545,418.184c-0.151-0.043,0.629-2.947,1.07-6.611c0.459-3.663,0.404-6.669,0.561-6.674
				c0.067-0.003,0.168,0.748,0.201,1.97c0.034,1.221-0.019,2.914-0.245,4.767c-0.229,1.853-0.587,3.508-0.915,4.684
				C235.889,417.499,235.61,418.203,235.545,418.184z"/>
		</g>
		<g>
			<path style="fill:#263238;" d="M246.313,416.825c-0.122,0.063-1.578-2.574-2.919-6.032c-1.35-3.455-2.061-6.382-1.929-6.418
				c0.145-0.042,1.074,2.8,2.414,6.229C245.21,414.036,246.448,416.758,246.313,416.825z"/>
		</g>
		<g>
			<path style="fill:#263238;" d="M253.985,410.093c0.01,0.057-0.715,0.25-1.913,0.171c-1.186-0.072-2.856-0.493-4.375-1.552
				c-1.519-1.06-2.491-2.482-2.968-3.571c-0.488-1.097-0.557-1.844-0.5-1.855c0.082-0.023,0.278,0.68,0.83,1.69
				c0.542,1.006,1.506,2.31,2.936,3.308c1.43,0.997,2.986,1.452,4.117,1.614C253.25,410.067,253.978,410.009,253.985,410.093z"/>
		</g>
		<g>
			<path style="fill:#263238;" d="M291.19,405.544c-0.003,0.009-0.084-0.008-0.238-0.047c-0.182-0.051-0.405-0.113-0.678-0.188
				c-0.596-0.161-1.488-0.353-2.65-0.486c-2.319-0.238-5.781-0.02-9.715,1.442c-3.974,1.373-8.191,4.118-12.745,7.302
				c-2.292,1.576-4.704,3.245-7.371,4.719c-2.666,1.47-5.594,2.709-8.716,3.552c-6.242,1.721-12.558,1.806-18.05,0.742
				c-5.512-1.057-10.175-3.199-13.729-5.472c-3.565-2.285-6.066-4.661-7.669-6.385c-0.792-0.874-1.388-1.57-1.759-2.068
				c-0.172-0.226-0.312-0.41-0.427-0.562c-0.094-0.128-0.138-0.197-0.131-0.202c0.007-0.005,0.066,0.052,0.173,0.169
				c0.126,0.142,0.279,0.316,0.467,0.528c0.397,0.475,1.015,1.147,1.826,1.995c1.64,1.673,4.16,3.988,7.718,6.213
				c3.547,2.213,8.175,4.295,13.622,5.312c5.429,1.026,11.662,0.926,17.823-0.773c3.082-0.832,5.969-2.05,8.607-3.496
				c2.64-1.451,5.047-3.103,7.346-4.668c2.295-1.571,4.493-3.057,6.639-4.31c2.145-1.255,4.253-2.247,6.253-2.943
				c3.998-1.436,7.522-1.601,9.861-1.297C290.001,404.948,291.19,405.544,291.19,405.544z"/>
		</g>
		<g>
			<path style="fill:#FFFFFF;" d="M228.743,397.399c0.083,0.127-0.667,0.725-1.347,1.657c-0.692,0.924-1.043,1.817-1.188,1.775
				c-0.134-0.025,0.014-1.068,0.77-2.084C227.726,397.726,228.679,397.278,228.743,397.399z"/>
		</g>
		<g>
			<path style="fill:#FFFFFF;" d="M229.862,394.186c-0.048,0.128-1.075-0.215-1.969-1.161c-0.901-0.94-1.192-1.982-1.062-2.024
				c0.139-0.06,0.613,0.807,1.439,1.665C229.085,393.534,229.929,394.05,229.862,394.186z"/>
		</g>
		<g>
			<path style="fill:#FFFFFF;" d="M231.599,387.739c-0.132,0.017-0.409-1.923-0.036-4.288c0.36-2.368,1.21-4.133,1.331-4.077
				c0.144,0.055-0.468,1.856-0.817,4.156C231.714,385.828,231.753,387.73,231.599,387.739z"/>
		</g>
		<g>
			<path style="fill:#FFFFFF;" d="M234.255,376.147c-0.032,0.054-0.359-0.053-0.721-0.456c-0.357-0.39-0.714-1.121-0.629-1.973
				c0.091-0.852,0.59-1.495,1.02-1.803c0.437-0.32,0.779-0.358,0.799-0.298c0.032,0.073-0.237,0.229-0.555,0.574
				c-0.317,0.336-0.674,0.899-0.746,1.582c-0.069,0.683,0.165,1.307,0.407,1.701C234.07,375.874,234.301,376.082,234.255,376.147z"
				/>
		</g>
		<g>
			<path style="fill:#FFFFFF;" d="M225.551,403.599c0.023,0.023-0.148,0.25-0.503,0.618c-0.355,0.369-0.908,0.867-1.654,1.404
				c-1.477,1.077-3.821,2.253-6.627,2.64c-2.806,0.388-5.382-0.11-7.095-0.748c-0.863-0.316-1.53-0.645-1.972-0.905
				c-0.442-0.258-0.668-0.43-0.652-0.459c0.043-0.08,1.023,0.484,2.74,1.014c1.704,0.535,4.199,0.955,6.907,0.581
				c2.707-0.373,4.995-1.452,6.491-2.428C224.697,404.342,225.488,403.534,225.551,403.599z"/>
		</g>
		<g>
			<path style="fill:#FFFFFF;" d="M176.591,410.597c-0.044,0.027-0.586-0.821-0.94-2.387c-0.359-1.545-0.429-3.858,0.46-6.167
				c0.891-2.31,2.495-3.978,3.798-4.882c1.313-0.923,2.284-1.188,2.299-1.139c0.039,0.083-0.865,0.466-2.077,1.433
				c-1.206,0.95-2.687,2.58-3.534,4.775c-0.844,2.195-0.841,4.397-0.584,5.911C176.262,409.67,176.675,410.562,176.591,410.597z"/>
		</g>
		<g>
			<path style="fill:#FFFFFF;" d="M180.982,414.822c-0.065,0.126-0.919-0.182-1.857-0.776c-0.939-0.592-1.585-1.231-1.498-1.344
				c0.088-0.116,0.859,0.325,1.777,0.903C180.32,414.186,181.049,414.693,180.982,414.822z"/>
		</g>
		<g>
			<path style="fill:#FFFFFF;" d="M246.172,432.684c0.008,0.016-0.139,0.101-0.426,0.247c-0.285,0.15-0.72,0.343-1.289,0.568
				c-1.139,0.443-2.849,0.974-5.032,1.241c-2.176,0.268-4.826,0.275-7.683-0.272c-2.859-0.526-5.904-1.596-8.867-3.154
				c-5.949-3.129-10.364-7.477-13.011-10.941c-1.345-1.728-2.284-3.233-2.888-4.294c-0.311-0.526-0.521-0.952-0.666-1.239
				c-0.143-0.288-0.211-0.443-0.195-0.451c0.039-0.021,0.378,0.562,1.035,1.585c0.654,1.024,1.634,2.487,3.003,4.171
				c2.698,3.375,7.098,7.622,12.965,10.708c2.922,1.536,5.911,2.601,8.716,3.144c2.803,0.563,5.404,0.594,7.552,0.377
				c2.154-0.216,3.855-0.685,5.004-1.066C245.538,432.922,246.153,432.643,246.172,432.684z"/>
		</g>
		<g>
			<path style="fill:#FFFFFF;" d="M232.108,445.453c0.028,0.012-0.028,0.245-0.211,0.637c-0.178,0.394-0.518,0.93-1.042,1.503
				c-1.039,1.17-2.908,2.296-5.06,3.171c-2.149,0.87-4.064,1.675-5.284,2.543c-1.236,0.841-1.799,1.606-1.871,1.548
				c-0.046-0.023,0.425-0.891,1.653-1.845c1.209-0.978,3.165-1.862,5.301-2.726c2.128-0.867,3.941-1.898,4.998-2.948
				C231.669,446.304,232.022,445.408,232.108,445.453z"/>
		</g>
	</g>
</g>
<g id="Starts">
	<g>
		<path style="fill:#E8505B;" d="M142.023,271.975l0.591-1.294l0.771,1.195c0.216,0.335,0.524,0.601,0.886,0.767l1.294,0.591
			l-1.196,0.771c-0.335,0.216-0.601,0.523-0.767,0.886l-0.591,1.294l-0.771-1.195c-0.216-0.335-0.524-0.601-0.886-0.767
			l-1.294-0.591l1.195-0.771C141.592,272.645,141.858,272.338,142.023,271.975z"/>
		<path style="fill:#E8505B;" d="M303.769,249.086l0.591-1.294l0.771,1.195c0.216,0.335,0.524,0.601,0.886,0.767l1.294,0.591
			l-1.195,0.771c-0.335,0.216-0.601,0.523-0.767,0.886l-0.591,1.294l-0.771-1.195c-0.216-0.335-0.523-0.601-0.886-0.767
			l-1.294-0.591l1.196-0.771C303.337,249.756,303.603,249.448,303.769,249.086z"/>
		<path style="fill:#E8505B;" d="M227.097,35.971l0.591-1.294l0.771,1.195c0.216,0.335,0.523,0.601,0.886,0.767l1.294,0.591
			L229.443,38c-0.335,0.216-0.601,0.523-0.767,0.886l-0.591,1.294l-0.771-1.195c-0.216-0.335-0.524-0.601-0.886-0.767l-1.294-0.591
			l1.195-0.771C226.665,36.641,226.932,36.333,227.097,35.971z"/>
		<path style="fill:#E8505B;" d="M169.282,345.937l0.591-1.294l0.771,1.195c0.216,0.335,0.523,0.601,0.886,0.767l1.294,0.591
			l-1.195,0.771c-0.335,0.216-0.601,0.523-0.767,0.886l-0.591,1.294l-0.771-1.195c-0.216-0.335-0.523-0.601-0.886-0.767
			l-1.294-0.591l1.195-0.771C168.85,346.608,169.116,346.3,169.282,345.937z"/>
		<path style="fill:#E8505B;" d="M306.075,83.982l0.207-0.453l0.27,0.418c0.076,0.117,0.183,0.21,0.31,0.268l0.453,0.207
			l-0.418,0.27c-0.117,0.076-0.21,0.183-0.268,0.31l-0.207,0.453l-0.27-0.418c-0.076-0.117-0.183-0.21-0.31-0.268l-0.453-0.207
			l0.418-0.27C305.924,84.217,306.017,84.109,306.075,83.982z"/>
		<path style="fill:#E8505B;" d="M136.017,234.783l0.207-0.453l0.27,0.418c0.076,0.117,0.183,0.21,0.31,0.268l0.453,0.207
			l-0.418,0.27c-0.117,0.076-0.21,0.183-0.268,0.31l-0.207,0.453l-0.27-0.418c-0.076-0.117-0.183-0.21-0.31-0.268l-0.453-0.207
			l0.418-0.27C135.866,235.017,135.959,234.91,136.017,234.783z"/>
		<path style="fill:#E8505B;" d="M179.743,307.013l0.207-0.453l0.27,0.418c0.076,0.117,0.183,0.21,0.31,0.268l0.453,0.207
			l-0.418,0.27c-0.117,0.076-0.21,0.183-0.268,0.31l-0.207,0.453l-0.27-0.418c-0.076-0.117-0.183-0.21-0.31-0.268l-0.453-0.207
			l0.418-0.27C179.592,307.247,179.685,307.139,179.743,307.013z"/>
		<path style="fill:#E8505B;" d="M282.026,230.926l0.207-0.453l0.27,0.418c0.076,0.117,0.183,0.21,0.31,0.268l0.453,0.207
			l-0.418,0.27c-0.117,0.076-0.21,0.183-0.268,0.31l-0.207,0.453l-0.27-0.418c-0.076-0.117-0.183-0.21-0.31-0.268l-0.453-0.207
			l0.418-0.27C281.875,231.16,281.968,231.053,282.026,230.926z"/>
		<path style="fill:#E8505B;" d="M366.153,172.404l0.207-0.453l0.27,0.418c0.076,0.117,0.183,0.21,0.31,0.268l0.453,0.207
			l-0.418,0.27c-0.117,0.076-0.21,0.183-0.268,0.31l-0.207,0.453l-0.27-0.418c-0.076-0.117-0.183-0.21-0.31-0.268l-0.453-0.207
			l0.418-0.27C366.002,172.638,366.095,172.531,366.153,172.404z"/>
		<path style="fill:#E8505B;" d="M162.541,112.622l0.207-0.453l0.27,0.418c0.076,0.117,0.183,0.21,0.31,0.268l0.453,0.207
			l-0.418,0.27c-0.117,0.076-0.21,0.183-0.268,0.31l-0.207,0.453l-0.27-0.418c-0.076-0.117-0.183-0.21-0.31-0.268l-0.453-0.207
			l0.418-0.27C162.39,112.857,162.483,112.749,162.541,112.622z"/>
		<path style="fill:#E8505B;" d="M265.183,131.319l0.591-1.294l0.771,1.195c0.216,0.335,0.523,0.601,0.886,0.767l1.294,0.591
			l-1.195,0.771c-0.335,0.216-0.601,0.523-0.767,0.886l-0.591,1.294l-0.771-1.195c-0.216-0.335-0.523-0.601-0.886-0.767
			l-1.294-0.591l1.195-0.771C264.751,131.989,265.017,131.682,265.183,131.319z"/>
		<path style="fill:#E8505B;" d="M307.165,374.299l0.591-1.294l0.771,1.195c0.216,0.335,0.524,0.601,0.886,0.767l1.294,0.591
			l-1.195,0.771c-0.335,0.216-0.601,0.523-0.767,0.886l-0.591,1.294l-0.771-1.196c-0.216-0.335-0.523-0.601-0.886-0.767
			l-1.294-0.591l1.195-0.771C306.734,374.969,307,374.661,307.165,374.299z"/>
		<path style="fill:#E8505B;" d="M88.203,225.814l0.968-2.121l1.263,1.959c0.354,0.549,0.858,0.985,1.452,1.257l2.121,0.968
			l-1.959,1.263c-0.549,0.354-0.985,0.858-1.257,1.452l-0.968,2.121l-1.263-1.959c-0.354-0.549-0.858-0.985-1.452-1.257
			l-2.121-0.968l1.959-1.263C87.496,226.912,87.932,226.408,88.203,225.814z"/>
		<path style="fill:#E8505B;" d="M360.695,225.969l0.968-2.121l1.263,1.959c0.354,0.549,0.858,0.985,1.452,1.257l2.121,0.968
			l-1.959,1.263c-0.549,0.354-0.985,0.858-1.257,1.452l-0.968,2.121l-1.263-1.959c-0.354-0.549-0.858-0.985-1.452-1.257
			l-2.121-0.968l1.959-1.263C359.987,227.067,360.423,226.563,360.695,225.969z"/>
		<path style="fill:#E8505B;" d="M120.378,145.869l0.968-2.121l1.263,1.959c0.354,0.549,0.858,0.985,1.452,1.257l2.121,0.968
			l-1.959,1.263c-0.549,0.354-0.985,0.858-1.257,1.452l-0.968,2.121l-1.263-1.959c-0.354-0.549-0.858-0.985-1.452-1.257
			l-2.121-0.968l1.959-1.263C119.671,146.967,120.107,146.463,120.378,145.869z"/>
	</g>
</g>
</svg>
