<svg width="700" height="700" viewBox="0 0 700 700" fill="none" xmlns="http://www.w3.org/2000/svg">
<circle cx="364" cy="351" r="234" fill="#FFE662"/>
<circle cx="350" cy="350" r="234" fill="black"/>
<path d="M271 466H208L271 233H302.5L350 332L397 233H429L492 466H429L397.5 337L350 433L303 338L271 466Z" stroke="white" stroke-width="8"/>
<path d="M329 329V357H348" stroke="white" stroke-width="4"/>
<path d="M371 329V357H352" stroke="white" stroke-width="4"/>
<path d="M340 349V372.571L350 379L360 372.571V349" stroke="white" stroke-width="4"/>
<rect x="344" y="363" width="4" height="4" fill="#C80000"/>
<rect x="352" y="363" width="4" height="4" fill="#C80000"/>
<path d="M273 222H296L273 189V222Z" fill="#FFE662" stroke="#FFE662" stroke-width="8"/>
<path d="M300 222H277L300 189V222Z" fill="#FFE662" stroke="#FFE662" stroke-width="8"/>
</svg>
