<?xml version="1.0" encoding="utf-8"?>
<!-- Generator: Adobe Illustrator 27.5.0, SVG Export Plug-In . SVG Version: 6.00 Build 0)  -->
<svg version="1.1" xmlns="http://www.w3.org/2000/svg" xmlns:xlink="http://www.w3.org/1999/xlink" x="0px" y="0px"
	 viewBox="0 0 1200 1200" style="enable-background:new 0 0 1200 1200;" xml:space="preserve">
<g id="Background">
	<g>
		<g>
			<rect style="fill:#F0C6C6;" width="1200" height="1200"/>
		</g>
	</g>
</g>
<g id="Graphic_element">
	<g>
		<g>
			<path style="fill:#F09090;" d="M802.048,479.26c-0.366,1.366-0.767,2.712-1.204,4.035
				c-36.856,111.636-128.626,187.893-221.697,251.981c-17.436-70.391-74.085-121.518-103.85-186.68
				c-16.425-35.959-30.347-75.684-22.325-114.393c8.025-38.723,46.003-73.579,84.52-64.617c36.556,8.506,54.896,48.49,68.011,83.656
				c25.219-35.19,54.693-68.59,92.583-89.535C769.495,324.233,817.796,420.555,802.048,479.26z"/>
		</g>
		<g>
			<path style="fill:#FFFFFF;" d="M313.248,489.601l0.683-4.625C313.654,485.046,313.397,486.212,313.248,489.601z"/>
			<path style="fill:#FFFFFF;" d="M880.084,712.966c0.01,0.367-0.009,0.788,0.016,1.112
				C880.134,713.297,880.12,713.045,880.084,712.966z"/>
			<path style="fill:#FFFFFF;" d="M350.893,317.236c-0.038,0.083-0.064,0.144-0.09,0.202c-0.096,0.341-0.211,0.741-0.299,1.047
				L350.893,317.236z"/>
			<path style="fill:#FFFFFF;" d="M713.828,217.881c0.005-0.001,0.01-0.001,0.015-0.002l1.714-0.97L713.828,217.881z"/>
			<path style="fill:#FFFFFF;" d="M312.36,554.483l0.363-0.122C312.611,554.285,312.492,554.288,312.36,554.483z"/>
			<path style="fill:#FFFFFF;" d="M886.74,528.429l1.268-0.627c-1.38-9.618-1.291-18.71-1.092-27.017
				c0.173-8.303,0.136-15.807-1.259-22.163c-0.986-9.903-0.268-13.282,0.238-16.762c0.527-3.478,0.866-7.063-1.094-17.313
				c0.375-2.722,0.805-5.451,1.115-8.174c-0.507-8.87-2.668-6.156-2.705-16.025c1.136,0.499-0.237-12.472,1.299-6.827
				c-0.224-11.179-2.101-22.373-3.905-34.437c-2.061-12.039-3.81-24.979-4.661-39.695c-2.993-6.004-3.949-20.801-6.393-25.221
				c0.779-0.923-4.76-29.21-0.04-13.194c0.399,1.38,0.787,3.87,0.404,3.76l1.564,1.749c-0.238-8.476-1.698-15.83-3.973-23.607
				c-2.295-7.73-5.198-15.565-9.189-24.308c2.14,5.326,4.497,12.149,2.062,7.861c-1.901-5.37-4.461-10.751-7.797-15.813
				c0.965,0.859,1.993,1.721,2.923,2.638c-4.469-7.975-10.937-15.072-18.378-20.411l2.244,3.324
				c-5.03-4.354-8.688-6.953-12.675-9.387c-2.007-1.186-4.159-2.098-6.667-3.083c-2.524-0.734-5.431-1.639-8.953-1.976
				c-3.205-0.286-0.447,0.87,1.459,1.736c0.958,0.411,1.706,0.866,1.432,0.915c-0.273,0.034-1.573-0.191-4.721-0.881
				c-7.795-2.399-17.699-4.378-27.996-5.283c-10.272-0.979-21.116-1.124-30.554-0.928c1.836,1.407-3.307,1.535-8.583,2.025
				l-0.661-1.254c-20.192,2.584-7.562-2.491-27.606-0.171l-3.461,1.96c-17.983,3.62-9.953-2.162-29.875,2.636
				c7.943-0.769,3.933,2.547-5.889,2.673l2.395-1.401c-5.402,0.636-7.173,1.276-10.798,1.271c3.178-0.869,1.57-1.951-6.377-1.082
				l5.223-1.968l-14.882,3.474c-11.742-0.416-29.99,3.004-34.922,1.746c0,0-23.356,1.581-29.908,4.059
				c2.709-1.358-9.347-0.458-5.807-2.18c-6.32,2.001-25.22,5.533-33.032,5.103l1.422-0.357
				c-28.412,2.318-47.857,8.807-73.302,11.217c1.39,1.264-12.024,2.743-8.421,4.047c-25.639,6.281-48.034,4.91-56.241,12.491
				c-11.675,2.725-14.19,1.52-20.324,2.477l2.737-0.879c-10.811,2.428-18.611,4.324-25.529,7.296
				c-6.915,2.963-13.204,6.942-19.775,13.828c-3.026,3.706-3.969,6.379-5.45,9.63c-1.419,3.285-3.4,7.148-7.108,14.011
				c1.366-5.001-1.515,0.757-3.793,6.185c1.41-3.477,1.403-4.794-2.244,2.113c-0.084,1.144-0.499,2.788-0.906,4.315
				c-0.104,0.032-0.274,0.298-0.328,0.109c-2.743,9.422-1.865,7.878-0.307,3.636c0.085,0.269,0.405-0.029,1.132-1.251
				c-2.379,4.524-4.197,11.332-5.568,17.048c-1.294,5.734-2.164,10.4-3.178,10.845c-2.149,14.33-2.404,26.586-2.401,38.096
				c0.02,11.528,0.4,22.312,0.348,33.952c-1.044,2.583-1.706-2.879-1.846-9.643l-0.191,16.51c-1.383-0.183-0.494-9.505-0.591-14.595
				c-2.901,19.584,0.97,40.566-1.505,63.555l0.995,4.799l-0.205,1.371c0.581-0.06,1.248,5.121,1.395,8.538
				c-1.241,3.239-2.756-0.272-2.841,11.141c-1.286,9.009,0.283,25.646,0.895,37.459c0.228-6.367,0.883-4.308,1.294-1.567
				c0.016,5.703-1.191,8.983-0.694,13.39l-1.256,0.424c1.18,0.794,1.35,15.207,1.955,17.13c-1.192,3.25-1.037-8.848-1.941-10.273
				c0.237,22.882,0.118,11.439,0.354,34.31c1.331,12.194,1.498-2.229,2.973,3.594c0.43,10.766,1.659,21.252,0.906,33.625
				l1.022-2.936c-1.328,4.935-1.883,11.24-1.883,11.24c-2.934,22.717,1.488,34.379,3.648,61.245
				c0.354,23.689-2.082,30.153,0.721,54.613c0.606,11.717,2.277,24.14,3.651,35.52c1.36,2.679,1.554,6.036,2.272,10.985
				c0.377,2.304,0.882,4.646,1.554,6.829c0.793,2.16,1.535,4.219,2.764,5.833l0.031,3.289c1.758,2.228,3.509,4.835,4.526,7.488
				l-0.395,0.045c0.766,0.744,1.434,1.571,2.118,2.375c0.717,0.786,1.384,1.583,2.003,2.336c1.188,1.535,2.4,2.75,3.284,3.339
				l-0.382,0.124c1.203,1.205,2.44,2.368,3.822,3.399l-1.011-0.189c6.184,4.216,12.93,7.738,19.283,10.059l-0.103-1.568
				c1.624,0.653,3.162,1.191,4.615,1.628c1.467,0.305,2.848,0.529,4.16,0.696c2.624,0.356,4.939,0.071,7.195,0.016
				c2.216-0.314,4.37-0.586,6.731-0.859c2.353-0.323,4.713-0.646,7.121-0.619l-0.058,0.378c2.733-1.555,4.819-2.15,6.348-2.098
				c1.54,0.037,2.304,0.683,2.978,1.402c1.23,1.472,2.288,3.435,6.098,7.601c-0.94-1.013-0.486,0.813-0.863,0.845
				c1.111,2.132,2.082,4.722,3.136,6.7c1.045,1.969,2.28,3.487,3.69,3.101c1.142,4.256,0.079,3.699-0.855,4.551
				c1.229-0.364,2.767,3.183,3.765,6.474l-0.901-1.393l3.061,9.382l1.81-2.515c0.729,5.219-2.483,2.073-0.578,6.738l1.911-0.604
				c1.555,7.067-0.227,11.98,0.231,19.138c1.743,7.04,3.892,14.242,6.168,21.192c2.296,7.12,4.607,14.282,6.896,21.379
				c3.317,10.345,7.743,22.709,13.044,28.167c1.313,1.471,2.613,2.643,4.126,3.625c0.75,0.489,1.576,0.918,2.615,1.187
				c1.026,0.258,2.271,0.288,3.153,0.004c1.833-0.469,3.12-1.232,4.529-2.082c0.684-0.446,1.374-0.876,2.066-1.452l1.047-0.786
				l1.055-1.007l1.565,0.782c0.673,1.206,1.912-2.586,2.937-6.052c1.111-3.365,1.688-7.315,2.775-7.139l1.338-5.509
				c0.817-0.949,2.3-3.436,1.762-0.846c0.923-2.119,1.321-3.262,1.567-4.279c0.123-0.509,0.208-0.987,0.3-1.541
				c0.083-0.529,0.24-1.286,0.24-1.751l2.438-2.454c5.268-10.54,6.109-20.786,10.435-32.204c3.619-6.541,6.846-16.647,9.361-27.054
				c0.636-2.602,1.229-5.222,1.779-7.811c0.284-1.399,0.564-2.788,0.843-4.161c0.23-1.4,0.457-2.793,0.616-4.084
				c0.559-4.908,1.081-9.485,1.523-13.351c0.345-5.166,1.902-10.202,4.469-13.606c2.314-3.11,6.394-4.982,10.978-6.076
				c4.693-1.041,9.903-1.363,15.304-1.646c5.359-0.316,11.033-0.594,16.86-1.86c0.768,0.267,2.669-0.547,2.638-0.797
				c7.026-0.321,14.047-0.795,21.057-1.421c0,0,6.375-0.586,14.654-1.907c8.279-1.298,18.436-3.447,26.003-5.961
				c0.383-0.127,0.755-0.255,1.125-0.383c5.941,0.292,12.403,0.562,19.457,0.8l-1.32,0.553c29.953-0.597,48.813-1.862,69.159-6.065
				c3.52,2.696,24.518-1.966,31.576-1.761l-0.637,0.307c17.923-4.12,37.625-2.199,54.86-6.438c-0.647,0.317-0.922,1.168-4.935,1.713
				c12.696-1.933,29.987-4.975,31.17-3.422c3.817-0.598,7.676-1.118,12.058-1.858c4.353-0.757,9.095-1.694,14.075-3.499
				c4.927-1.785,10.222-4.526,14.549-8.654c4.395-4.004,7.454-8.941,9.635-13.678c4.188-9.599,5.247-18.51,6.014-25.897
				c0.628-7.303,0.938-13.647,0.881-18.62l0.304,1.397c-0.22-5.675,0.169-9.276,0.681-13.033c0.445-3.763,1.021-7.682,1.215-13.958
				c0.295-0.655,0.503-1.525,0.583-1.374c-0.385-12.304,3.053-35.478,3.056-45.377l1.18-0.553l1.357-24.267l-0.85,9.046
				c-1.483-1.672-0.616-6.213,0.343-12.571c0.932-6.357,2.089-14.535,1.49-23.377c0.964-16.502-5.443-33.562-3.877-50.583
				c-1.399-8.148,2.328,7.184,1.3-4.994c1.639-0.396,0.977,5.694,2.31,2.56C885.797,550.881,887.937,543.197,886.74,528.429z
				 M869.74,583.99c-0.542,12.644-0.599,26.396-1.141,40.237c-0.642,27.701-2.027,55.803-3.198,76.364
				c-0.355,7.23-0.913,14.594-1.623,22.056c-0.694,7.464-1.819,14.993-2.893,22.604c-1.144,7.61-2.164,15.421-4.073,22.167
				c-1.854,6.834-4.796,12.698-8.834,16.12c-3.868,3.412-9.69,5.116-16.755,6.151c-3.494,0.515-7.353,0.904-11.276,1.343
				c-3.888,0.454-7.764,0.907-11.627,1.359c-15.449,1.81-30.622,3.893-45.243,6.493c-1.95-0.075-6.836,1.168-6.77,1.409
				c-17.993,1.917-36.011,3.569-54.043,5.034c0,0-65.566,5.284-106.294,8.567c-13.718,1.23-24.587,2.485-29.16,3.914
				c-1.215,0.186-2.297,0.281-3.016,0.078l0.228-0.26c-3.299,1.387-6.834,1.141-10.316,0.833c-1.744-0.166-3.471-0.342-5.177-0.328
				c-1.753,0.006-3.504,0.213-5.201,0.817c0.255-0.252,0.355-1.067,1.938-1.198c-4.975,0.554-12.042,1.985-12.683,0.391
				c-6.284,1.082-14.304,2.547-21.634,6.645c-3.634,2.016-6.942,4.688-9.379,7.662c-2.603,3.124-3.713,6.155-4.281,8.499l-0.1-0.79
				c-0.449,2.784-0.992,4.255-1.652,5.796c-0.643,1.524-1.38,3.107-1.657,5.741c-0.298,0.21-0.515,0.536-0.589,0.453
				c0.328,5.359-2.789,13.893-2.755,17.516l-1.165-0.007c-0.522,2.974-1.045,5.354-1.858,8.444l1.144-3.164
				c2.743,1.897-3.75,6.076-3.655,12.952c-2.117,5.799,2.633,13.927-0.806,19.632c0.465,3.378-1.453-3.306-1.769,1.414
				c-1.603-0.359-0.328-2.354-1.928-1.629c-0.641,4.523-3.864,6.481-4.59,12.069l-1.28-0.2c-0.13,7.599-6.107,12.224-5.71,17.462
				c-0.823,3.655-2.162,4.472-3.347,5.376c-0.591,0.454-1.143,0.931-1.578,1.8c-0.188,0.358-0.482,1.164-0.451,1.367
				c-0.024,0.345,0.009,0.786,0.091,1.409c-0.68,0.143-1.35,0.268-1.927,0.154c-0.541,0.553,1.246,2.51,0.125,2.989
				c-0.669-1.218-1.094,0.306-1.41-1.575c-0.427-0.099-0.592,0.128-0.758,0.706c-0.165,0.56-0.297,1.505-0.662,2.415
				c-0.163,0.445-0.473,0.896-0.801,0.919c-0.318,0.033-0.527-0.195-0.722-0.512c-0.358-0.66-0.564-1.912-0.385-3.509
				c-0.676,1.356-1.047,1.045-1.34,0.68c-0.304-0.384-0.539-0.818-1.269-0.47c0.34-0.45,0.079-1.39,0.051-2.1
				c-0.045-0.762,0.207-0.999,1.324-0.745c0.179,0.031,0.209,0.23-0.105,0.439c0.379-0.195,0.752-0.411,1.117-0.648
				c0.161-0.224,0.313-0.434,0.461-0.638c0.046-0.069,0.076-0.124,0.093-0.169c0.019-0.039,0.028-0.052-0.036-0.272
				c-0.098-0.337-0.238-0.621-0.429-0.958c-0.273-0.646-0.578-1.278-0.898-1.907c-1.28-2.529-2.788-5.049-3.404-8.131
				c0.069,1.905,0.793,4.247-0.454,2.878l-1.314-5.688l1.335,0.917c-0.543-2.875-1.114-5.792-1.746-8.748l-0.915,1.552
				c-0.598-4.479,1.215-6.373-1.863-10.482c-1.569-1.786-0.618,4.342-2.205,0.165c-0.657-5.684-1.632-14.193-3.185-21.231
				c-1.235,1.051-1.701-0.831-2.523-2.669l1.166-0.57c-3.753-6.877,1.951-3.46-1.437-10.376l1.036,0.403l-3.106-1.209
				c-4.27-5.913,1.563-4.261-3.802-10.662c1.015,2.837-2.331,2.115-2.789-1.601l1.439,0.576c-0.8-1.904-1.48-2.426-1.599-3.808
				c0.967,0.999,1.901,0.147,0.891-2.697l2.027,1.536c-1.239-1.632-2.458-3.211-3.757-5.025c-0.021-2.469-1.075-5.515-2.229-8.282
				c-1.133-2.772-2.425-5.246-2.261-6.715c0,0-1.293-2.875-3.855-5.893c-1.247-1.5-2.901-2.995-4.535-4.041
				c-1.62-1.053-3.225-1.667-4.217-1.663c1.649,0.235,0.713-0.782-0.467-1.849c-1.13-1.107-2.593-2.037-1.071-2.231
				c-2.284-0.286-6.731-0.894-10.529-0.64c-3.849,0.153-6.971,0.629-8.781,0.196l0.626-0.267c-3.285,0.176-5.716,0.688-7.662,1.118
				c-1.853,0.467-3.387,0.687-5.07,1.101c-3.202,0.461-6.586,0.69-9.536-1.195c-0.17,1.627-3.284-0.538-3.16,1.572
				c-3.888-0.613-6.464-3.433-8.181-5.691c-0.931-1.088-1.64-2.163-2.674-2.699c-0.926-0.659-2.066-0.929-3.713-0.641
				c-2.455-2.962-1.324-4.476-1.907-6.295l0.678,0.634c-0.449-0.737-0.858-1.408-1.235-2.027c-0.316-0.661-0.607-1.266-0.878-1.829
				c-0.586-1.112-0.94-2.135-1.263-3.109c-0.718-1.919-1.072-3.744-1.465-6.354c-0.453-1.279-1.389-1.898-2.19-2.959
				c-0.777-1.15-1.43-2.627-1.362-5.459c1.243,1.713,0.832-0.557,0.641-2.653c0.292,1.324,0.724,1.701,1.195-1.112
				c-0.369-0.357-0.631-0.937-0.85-1.482c0.083-0.031,0.139-0.146,0.259-0.1c-0.681-3.463-0.964-2.826-0.972-1.189
				c-0.171-0.067-0.369,0.088-0.626,0.617c1.081-3.752-0.968-10.116,0.853-10.709c-1.275-10.48-3.764-17.862-5.064-26.592
				c0.886-1.05,1.871,0.944,2.413,3.462l-0.772-6.195c1.375-0.037,1.032,3.519,1.436,5.415c1.709-7.541-3.232-15.121-1.674-23.932
				l-1.185-1.742l0.15-0.528c-0.571,0.058-1.467-1.85-1.714-3.13c1.133-1.292,2.759-0.059,2.47-4.356
				c0.97-3.456-1.046-9.632-1.881-14.065c-0.095,2.411-0.793,1.666-1.26,0.648c-0.136-2.153,1.004-3.441,0.429-5.084l1.246-0.211
				c-1.16-0.245-1.537-5.397-2.138-6.315c0-0.035,0-0.071,0-0.106c1.096-1.071,1.125,3.34,2.032,3.835
				c-0.453-8.629-0.227-4.314-0.678-12.938c-0.621-2.08-0.987-2.079-1.343-1.669c-0.089-18.269-0.701-34.265-1.532-50.952
				c-1.159-23.786-2.754-48.992-3.197-84.185c0.502-30.932,1.653-50.485,2.705-70.309c1.065-19.822,1.923-39.933,2.523-71.954
				c0.673-15.208,1.34-30.579,3.366-45.322c2.001-14.729,5.447-28.811,11.049-41.007c1.774-6.22,6.063-14.109,11.778-19.857
				c2.848-2.899,5.916-5.218,9.098-6.967c3.241-1.793,6.916-3.246,10.448-4.664c1.992-0.113,4.037-0.176,6.144-0.226
				c5.31-1.806,12.01-3.558,17.777-4.084l-0.286,0.423c8.246-2.693,17.907-3.961,22.018-5.24l-0.284,0.422l10.248-2.15l-1.672,0.842
				c7.293-1.868,14.757-3.474,22.077-4.904c7.328-1.385,14.532-2.487,21.293-3.427l-1.361-1.276
				c29.071-3.067,39.171-7.757,65.571-9.367l-0.308,0.406c32.549-8.276,52.531-3.938,86.309-10.911
				c-4.222,0.855,1.898,0.595,1.585,0.986c15.694-1.954,32.527-3.36,32.55-6.346c11.512-0.82,9.438,0.245,11.017,1.253
				c-0.158-1.254,9.802-2.541,18.786-3.157l-4.107,0.737l25.747-1.91l-5.193-2.145c13.72-0.008,3.628,2.764,16.695,1.55
				l-0.259-1.992c9.473-0.287,17.022,0.347,24.484,1.065c7.33,0.762,14.596,1.516,23.583,2.45c9.154,0.249,18.183,1.04,26.797,2.756
				c8.646,1.651,16.638,4.643,23.471,8.937c6.658,4.542,12.024,10.341,15.635,17.959c3.723,7.562,5.959,16.488,7.871,25.795
				c7.568,37.915,13.223,75.758,15.045,111.085l-1.162,3.25c-1.946,1.543,4.995,19.098,3.237,21.971l1.728,8.107
				c-0.176,2.333-0.3,7.227-1.062,3.18c0.439,7.587,0.81,7.743,1.852,13.16l-0.801,8.227c0.324,7.488,0.492,14.7,0.982,21.78
				c0.476,7.082,0.942,14.049,1.413,21.067c0.431,7.02,0.932,14.092,1.254,21.384c0.235,7.293,0.382,14.805,0.334,22.696
				C870.53,559.782,869.954,571.339,869.74,583.99z"/>
			<path style="fill:#FFFFFF;" d="M339.222,722.778l-0.497,1.78C338.998,724.514,339.209,724.06,339.222,722.778z"/>
			<path style="fill:#FFFFFF;" d="M493.29,852.147c-0.004-0.159,0.021-0.336,0.004-0.481
				C493.246,851.994,493.256,852.105,493.29,852.147z"/>
			<path style="fill:#FFFFFF;" d="M324.138,792.522c-0.004-0.039-0.006-0.067-0.009-0.094c-0.075-0.142-0.119-0.316-0.191-0.443
				L324.138,792.522z"/>
			<path style="fill:#FFFFFF;" d="M338.377,698.3l-0.362,0.061C338.129,698.385,338.247,698.379,338.377,698.3z"/>
			<path style="fill:#FFFFFF;" d="M681.333,623.913l-2.589,1.748C678.974,625.819,679.69,625.437,681.333,623.913z"/>
			<path style="fill:#FFFFFF;" d="M614.268,395.923c0.14-0.204,0.323-0.419,0.435-0.609
				C614.365,395.711,614.273,395.857,614.268,395.923z"/>
			<path style="fill:#FFFFFF;" d="M579.406,684.801c0.052-0.039,0.091-0.068,0.128-0.095c0.173-0.19,0.373-0.41,0.531-0.582
				L579.406,684.801z"/>
			<path style="fill:#FFFFFF;" d="M437.224,539.892c-0.003-0.005-0.004-0.008-0.006-0.013l-1.278-0.726L437.224,539.892z"/>
			<path style="fill:#FFFFFF;" d="M765.793,398.384l-0.26,0.878C765.781,399.146,765.925,398.891,765.793,398.384z"/>
			<path style="fill:#FFFFFF;" d="M753.397,427.821l-0.004-0.031c-0.068-0.039-0.104-0.093-0.17-0.127L753.397,427.821z"/>
			<path style="fill:#FFFFFF;" d="M778.425,459.594c1.884-4.212-1.401-7.514,0.532-11.316c-1.469,0.135-0.654-1.905-2.549-1.435
				c-0.925-2.009,0.066-3.806,0.516-5.33c0.41-1.519,0.332-2.737-2.618-3.327c-0.396-1.778,1.314-2.204,1.524-3.17l0.345,0.415
				c-0.786-3.391-0.865-4.363-1.039-6.913c-0.738-1.202-3.459-1.036-3.111-3.335c1.166,0.559,0.845-0.32,0.728-1.156
				c0.241,0.505,0.657,0.617,1.221-0.605c-0.355-0.102-0.607-0.307-0.817-0.501c0.083-0.023,0.139-0.078,0.258-0.075
				c-0.641-1.331-0.925-1.024-0.95-0.357c-0.169-0.004-0.367,0.086-0.624,0.335c1.102-1.68-0.855-3.968,0.93-4.518
				c-1.36-4.109-3.954-6.564-5.72-9.635c0,0,0-0.001,0-0.001c0.793-0.665,1.843-0.142,2.504,0.738l-1.081-2.295
				c1.313-0.409,1.184,1.141,1.677,1.803c1.27-3.633-4.062-5.151-3.409-9.139l-1.291-0.256l0.081-0.26
				c-0.527,0.231-1.564-0.177-1.942-0.569c0.897-0.927,2.547-1.067,1.762-2.641c0.239-0.87-0.29-1.725-1.064-2.504
				c-0.812-0.762-1.844-1.457-2.545-2.103c0.269,0.951-0.468,0.974-1.032,0.805c-0.429-0.737,0.394-1.741-0.368-2.088l1.381-0.846
				c-1.165,1.016-2.498-1.207-3.266-1.124c0.776-1.014,1.596,0.621,2.464,0.39c-1.916-2.919-0.957-1.46-2.872-4.378
				c-1.986-0.935-1.122,1.095-2.775,1.096c-1.072-1.207-2.954-1.951-3.397-4.04l-0.113,0.209c-0.929-1.693-2.476-3.678-4.266-5.631
				c-1.608-1.742-3.325-3.486-4.967-4.946c-1.578-1.51-2.933-2.841-3.776-3.822l0.527,0.135
				c-5.633-3.616-11.005-7.823-17.116-11.283c-6.049-3.414-12.978-6.021-19.785-5.645c0.536-0.16,0.912-0.936,4.022-0.527
				c-2.468-0.281-5.149-0.595-7.815-0.508c-1.328,0.012-2.652-0.05-3.923,0.021c-1.268,0.1-2.496,0.197-3.654,0.288
				c-2.335,0.091-4.321,0.409-5.822,0.503c-1.503,0.087-2.513-0.014-2.783-0.401c-2.834,0.662-5.732,1.574-8.679,2.531
				c-1.428,0.565-2.878,1.138-4.342,1.717l-2.196,0.889l-2.107,1.048c-1.406,0.707-2.82,1.418-4.238,2.13
				c-1.399,0.721-2.608,1.495-3.918,2.243c-1.283,0.759-2.563,1.516-3.834,2.268c-1.235,0.806-2.464,1.607-3.679,2.401
				c-9.707,6.38-17.729,13.387-21.908,18.655l0.38-0.955c-4.501,6.294-7.214,6.54-12.632,12.993
				c-0.482,0.155-0.986,0.484-0.985,0.35c-4.649,6.867-16.239,17.215-19.835,22.753l-1.14-0.418
				c-1.687,2.084-3.417,4.137-5.048,6.258l-2.475,3.16l-0.731,0.96l-0.539,0.745l0.936-0.993l1.826-2.059
				c0.141,0.449,0.105,0.913-0.079,1.401c-0.091,0.244-0.22,0.495-0.382,0.752c-0.141,0.235-0.418,0.598-0.463,0.652
				c-0.483,0.591-1.298,1.193-2.118,1.729c-0.836,0.548-1.648,1.04-2.375,1.776c-0.75,0.747-1.405,1.733-2.279,3.768
				c-0.324,0.339-0.681,1.007-1.029,1.513c-0.914-1.219-2.513-1.22-4.719-3.305c-1.107-0.975-2.265-2.397-3.39-4.109
				c-0.548-0.831-1.076-1.769-1.628-2.961c-0.511-1.133-0.977-2.29-1.379-3.483c-3.66-4.192,4.217,3.23-0.304-3.516
				c1.349-0.967,2.568,2.95,2.833,0.501c-4.208-6.777-4.414-12.593-10.939-20.451l0.831-1.059
				c-4.734-4.806-8.229-9.982-12.096-14.442c-0.961-1.111-1.852-2.241-2.83-3.252c-1.009-0.986-2.011-1.931-3.016-2.809
				c-1.937-1.824-4.208-3.067-6.387-3.96c-6.282-3.44-8.049-5.251-10.099-6.944c-1.019-0.851-2.094-1.684-3.877-2.513
				c-1.854-0.613-4.395-1.353-8.299-1.634c-1.867-0.908-3.795-1.815-5.781-2.712c-3.394-0.552-4.679,0.13-5.983,0.489
				c-1.318,0.464-2.679,0.603-6.385,0.627c0.185-0.564-2.19-0.559-4.097-0.569c-1.892,0.027-3.277,0.234-1.208-0.771
				c-8.68,0.624-16.837,4.315-24.437,9.187c-7.652,4.943-14.86,11.033-23.013,18.112c-0.628,2.536-3.008,5.507-4.952,8.617
				c-1.962,3.091-3.849,6.058-3.923,7.982c-0.513,0.022-3.29,4.541-4.883,7.964c-1.717,3.334-2.943,5.284-1.341-0.621
				c0.286-1.016,1.091-2.678,1.359-2.403l-0.502-1.883c-7.748,10.078-7.241,21.82-8.927,33.087c0.741-3.433,1.628-8.002,1.882-4.807
				c-0.372,1.782-0.668,3.572-0.856,5.372c-0.214,1.798-0.472,3.597-0.641,5.397c-0.322-0.776-0.557-1.559-0.837-2.348
				c-0.72,5.402-1.016,10.83-1.074,16.245l1.274-2.263c-0.459,7.832-2.396,10.933,0.634,19.444c1.618,3.744,0.623-7.491,2.281,0.497
				c0.623,10.303,3.136,25.629,7.201,37.91c1.004-1.634,2.052,1.687,3.598,4.889l-1.05,0.832c3.232,6.063,3.111,7.414,2.867,8.853
				c-0.228,1.417-0.526,2.886,2.772,8.77l2.574,1.464c3.565,4.979,3.678,6.725,3.998,8.606c0.303,1.86,0.772,3.905,5.318,9.222
				c-2.523-4.748,1.27-3.44,3.922,2.515l-1.877-0.884c1.955,3.074,2.979,3.889,3.902,6.134c-1.592-1.591-2.15-0.115,0.652,4.437
				c-1.064-0.758-2.065-1.573-3.088-2.379c2.235,2.645,4.684,5.08,7.003,7.604c1.36,3.714,4.077,7.906,6.464,11.613
				c2.354,3.747,4.44,6.945,4.582,8.73c0,0,2.083,3.569,4.634,7.39c2.575,3.772,5.611,7.801,7.448,8.823
				c-2.819-2.051,1.862,5.653-0.725,4.308c3.5,2.743,11.385,12.405,12.953,17.289l-0.658-0.687
				c8.923,15.923,18.741,24.879,24.889,39.774c0.95-1.346,4.293,6.439,4.965,3.738c2.227,3.494,3.965,7.055,5.427,10.446
				c1.309,3.444,2.291,6.733,3.292,9.646c1.079,2.894,1.706,5.552,2.843,7.63c0.143,0.258,0.282,0.512,0.419,0.761
				c0.219,0.429,0.434,0.849,0.646,1.263c0.445,0.84,0.898,1.608,1.36,2.293c0.875,1.4,1.747,2.489,2.717,3.12
				c1.812,5.535,2.495,9.123,3.033,12.409c0.523,3.25,0.845,6.075,1.692,9.459l-1.042-2.443c0.221,0.698,0.439,1.38,0.652,2.048
				l0.314,0.988c0.006,0.135,0.088,0.059,0.161,0.001l0.214-0.155l0.425-0.307c1.122-0.81,2.196-1.585,3.227-2.329
				c2.043-1.47,3.915-2.817,5.659-4.072c3.447-2.456,6.389-4.553,9.179-6.539c4.419-3.095,8.348-5.846,13.999-9.804
				c4.087-3.657,3.235-6.291,11.479-11.523c-1.893,2.755,1.188,0.214,4.117-1.967c-1.769,1.529-2.116,2.281,2.165-0.001
				c0.343-0.673,1.057-1.46,1.738-2.18c0.084,0.044,0.277-0.017,0.267,0.134c4.664-3.947,3.608-3.58,1.25-2.01
				c0.014-0.218-0.304-0.243-1.185,0.038c5.964-2.586,13.939-10.797,15.693-9.788c14.24-11.624,23.04-21.608,34.021-32.202
				c1.929-0.413-0.202,2.563-3.312,5.761l7.942-7.409c0.883,1.121-4.172,4.698-6.507,7.11c2.797-1.718,5.403-3.737,7.838-6.042
				c2.409-2.336,4.719-4.869,7.071-7.449c2.338-2.597,4.78-5.172,7.304-7.782c2.501-2.635,5.197-5.181,8.248-7.513l1.455-2.992
				l0.77-0.515c-0.464-0.39,1.446-3.275,2.809-5.082c2.321-0.753,1.892,2.018,6.959-3.583c2.445-1.804,5.227-5.021,7.971-8.562
				c2.214-3.218,4.519-6.566,6.549-9.518c1.211-0.237,2.481-0.526,3.874-0.946l0.209,0.474c3.977-2.481,5.974-4.55,6.063-8.428
				c2.586,1.501,2.594-2.595,3.92-2.83l0.13,0.227c-0.172-3.519,4.879-3.255,4.816-6.551c0.13,0.22,0.757,0.748,0.43,1.251
				c0.825-1.743,1.751-4.229,3.238-3.343c2.3-3.897,6.399-8.708,5.672-12.59l0.292,0.423c-0.657-2.362,0.941-1.901,1.096-3.953
				c0.242,0.037,0.407-0.011,0.477,0.057c-0.618-2.474,2.473-4.526,2.56-6.147l1.024,0.514c0.553-1.037,1.067-2.094,1.578-3.153
				l-0.872,1.008c-2.469-1.997,3.031-1.29,2.564-4.524c1.558-1.875-3.236-7.38-0.753-8.768c-0.725-1.734,1.595,2.058,1.444-0.019
				c1.46,0.74,0.506,1.214,1.865,1.45c0.148-1.883,2.827-1.681,2.879-4.079l1.165,0.527c-0.706-3.52,3.914-3.894,2.809-6.561
				c0.368-3.028,4.263-0.011,3.396-3.806l2.054-0.295c0.81-1.045-1.5-1.761-0.133-2.685c0.941,0.552,1.562-1.258,2.129-0.055
				c2.969-2.213,0.651-6.951,4.974-9.725c-1.558-1.701,0.466-3.175-0.714-4.431c0.91,0.267,1.764-3.968,2.705-0.937
				c0.073,0.258-0.095,0.591-0.417,0.429l1.046,0.756c3.116-1.403,0.478-4.677,1.723-6.796c-0.657,0.522-0.912,1.454-1.475,0.543
				l1.001-2.038l0.811,0.816c0.628-0.961,1.176-1.985,1.763-2.984l-1.385-0.009c1.19-1.332,3.487-1.155,2.374-3.554
				c-0.689-1.139-2.191,0.906-1.987-0.882c1.633-1.752,3.87-4.623,5.105-7.309c-1.492-0.154-1.21-0.886-1.266-1.732l1.255,0.26
				c-0.856-3.456,3.012-0.376,2.434-3.807l-1.594-0.97c-1.814-3.297,2.981-0.945,0.278-4.691c-0.011,1.208-2.859-0.024-2.045-1.327
				l1.139,0.603c-0.104-0.842-0.559-1.203-0.208-1.678c0.562,0.596,1.711,0.592,1.728-0.616l1.364,1.074l-1.806-2.628
				c1.653-1.463,0.399-4.479,2.244-4.906c0,0,1.43-3.605-0.383-4.721c1.076,0.909,1.783-1.104,3.086-0.34
				c-1.209-1.161-1.911-4.125-0.423-5.157L778.425,459.594z M682.842,594.466c-2.806,3.04-5.589,5.661-8.117,8.198
				c-2.566,2.5-4.974,4.846-7.308,7.12c-2.43,2.181-4.783,4.292-7.143,6.411c-2.335,2.137-4.677,4.281-7.113,6.51
				c-2.483,2.191-5.059,4.465-7.817,6.9c-5.461,4.948-11.641,10.549-19.239,17.435c-15.104,12.49-31.151,26.021-46.571,37.667
				c-2.996,3.647-8.224,7.285-13.561,11.095c-7.313,5.201-5.895,4.054-7.601,6.355c-0.265-0.314-0.433-0.696-0.503-1.145
				c-1.045,1.998-1.377,0.879-1.145-0.36l0.265-0.334c-0.437,0.089-0.695-0.458-0.891-0.865c-0.043-0.102-0.084-0.202-0.123-0.296
				c-0.223-0.595-0.434-1.161-0.632-1.688c-0.41-1.066-0.788-1.968-1.148-2.624l0.421,0.108c-0.817-2.284-1.805-4.478-2.81-6.661
				l0.958,0.948c-2.51-4.571-4.689-9.36-7.103-13.836c-2.251-4.553-4.448-8.995-6.511-13.166l-0.94,1.384
				c-0.999-2.263-1.971-4.322-2.921-6.222c-0.986-1.87-1.981-3.554-2.933-5.146c-1.931-3.161-3.698-5.959-5.576-8.555
				c-1.847-2.628-3.653-5.207-5.481-8.125c-1.859-2.88-3.766-6.067-5.76-9.991l0.432-0.001c-15.459-16.134-17.44-30-32.44-46.6
				c1.854,2.082,0.019-1.409,0.444-1.412c-1.442-2.09-2.908-4.216-4.298-6.233c-1.37-2.018-2.648-3.924-3.868-5.516
				c-2.418-3.19-4.52-5.156-5.799-4.523c-3.467-6.513-2.046-5.718-1.507-7.092c-0.554,0.321-1.707-0.859-3.074-2.754
				c-1.365-1.894-2.747-4.578-4.051-7.13l1.592,2.155l-3.76-7.291l-3.558-7.521l-0.906,3.966c-2.869-8.402,1.776-3.221-2.016-10.764
				l-1.811,0.86c-4.204-11.477-3.789-19.233-5.546-30.584c-3.063-11.457-5.307-23.147-6.108-34.875
				c-0.313-5.857-0.295-11.721,0.264-17.521c0.07-1.463,0.377-2.881,0.548-4.327c0.223-1.426,0.342-2.923,0.704-4.255l0.919-4.111
				c0.295-1.375,0.838-2.694,1.24-4.048c3.415-10.809,9.776-20.742,17.596-28.6c7.825-7.883,17.606-13.223,27.17-15.204
				c0.691,0.343,1.369,0.73,2.027,1.096c0.309,0.495,1.029,0.414,1.981,0.025c0.478-0.195,1.015-0.468,1.593-0.784
				c0.579-0.289,1.206-0.501,1.845-0.783c1.275-0.528,2.619-1.11,3.745-1.398c1.124-0.138,2.016-0.067,2.36,0.453
				c1.461-0.233,2.984-0.725,4.487-0.689c1.202,0.612,3.671,1.436,1.439,1.572c1.973,0.345,3.004,0.435,3.912,0.609
				c0.915,0.109,1.719,0.084,3.272,0.19c1.319,0.774,2.44,1.983,3.616,2.907c7.088,3.736,13.308,8.161,19.154,13.909
				c5.799,5.752,11.127,12.733,15.529,21.469c2.096,5.144,4.559,11.185,7.254,17.799c4.272,11.167,8.911,23.286,13.686,35.765
				c5.527-7.729,11.163-15.612,16.772-23.455c2.763-3.758,5.517-7.506,8.249-11.221c1.608-2.155,3.202-4.291,4.773-6.393
				c6.039-8.025,11.962-15.316,17.065-21.095c11.729-14.315,28.131-26.302,45.731-34.91l3.296-1.621l3.181-1.315
				c1.056-0.417,2.09-0.912,3.148-1.274l3.177-0.999c2.089-0.792,4.224-1.059,6.297-1.604c1.037-0.297,2.087-0.295,3.118-0.475
				c1.034-0.102,2.062-0.377,3.083-0.373c2.041-0.049,4.069-0.287,6.054-0.091c2.006-0.032,3.951,0.312,5.913,0.516
				c3.865,0.702,7.741,1.502,11.498,2.981c0.82,0.637,3.488,1.447,3.605,1.239c6.691,4.009,12.531,9.765,17.499,16.356
				c0.071,0.198,0.208,0.383,0.41,0.559c1.264,1.705,2.485,3.45,3.631,5.248c0,0,0.36,0.486,0.929,1.448
				c0.567,0.962,1.391,2.361,2.419,4.104c1.497,2.832,3.457,6.598,5.352,11.042c0.327,1.077,0.742,2.256,1.391,3.583
				c0.402,1.851,0.947,3.73,1.582,5.591c0.504,1.9,1.202,3.755,1.609,5.607c0.324,0.2,0.564,0.439,0.758,0.7
				c0.259,0.938,0.528,1.869,0.768,2.82c0.084,0.932,0.183,1.875,0.627,2.688c0.071,0.31,0.144,0.62,0.213,0.932l-0.868,0.702
				c0.693,0.69,1.178,1.549,0.526,2.339l-0.358-0.029c0.97,1.072,0.463,2.362,0.951,2.904l-0.362-0.037l0.209,1.358l-0.517-0.226
				c0.979,1.945,1.035,4.006,0.554,5.783l1.495-0.105c-1.856,3.793,1.191,5.412-1.124,8.786l-0.354-0.081
				c1.789,2.403,0.855,4.134-0.046,5.813c-0.882,1.693-1.897,3.343-0.423,5.94c-0.368-0.649-0.795,0.121-1.144,0.014
				c0.118,2.166-0.164,4.447,2.679,5.048c-0.519-0.086-1.129,0.311-1.806,1.114c-0.143-0.013-0.289-0.023-0.444-0.025
				c0.136,0.025,0.219,0.115,0.334,0.168c-0.174,0.214-0.347,0.418-0.527,0.678c-1.873,2.366-5.183,8.247-7.589,13.155
				c-1.23,2.477-2.309,4.776-3.08,6.456c-0.379,0.842-0.691,1.526-0.954,1.982c-0.243,0.463-0.379,0.721-0.379,0.721
				c-2.264,4.073-4.295,7.921-6.155,11.626c-0.958,1.839-1.751,3.698-2.733,5.429c-0.951,1.745-1.883,3.455-2.803,5.141
				c-1.802,3.389-3.484,6.713-5.105,10.044c-1.683,3.298-3.55,6.475-5.282,9.794c-1.807,3.278-3.438,6.731-5.455,10.13
				c-2.033,3.399-4.139,6.918-6.359,10.629c-2.152,3.768-4.753,7.52-7.556,11.517c-2.847,3.964-5.645,8.357-9.254,12.654
				C688.562,588.031,685.589,591.374,682.842,594.466z M701.69,599.162c0.252-0.039,0.524-0.098,0.786-0.144
				C701.901,599.482,701.683,599.461,701.69,599.162z"/>
			<polygon style="fill:#FFFFFF;" points="774.905,484.709 774.905,484.714 775.701,485.198 			"/>
		</g>
	</g>
</g>
</svg>
